<svg id="Capa_1" data-name="Capa 1" xmlns="http://www.w3.org/2000/svg" xmlns:xlink="http://www.w3.org/1999/xlink" viewBox="0 0 2341.65 225.73"><defs><style>.cls-1{fill:#9e1524;}.cls-2{fill:url(#Degradado_sin_nombre);}.cls-3{fill:url(#Degradado_sin_nombre_2);}.cls-4{fill:url(#Degradado_sin_nombre_3);}.cls-5{fill:url(#Degradado_sin_nombre_4);}.cls-6{fill:url(#Degradado_sin_nombre_5);}.cls-7{fill:url(#Degradado_sin_nombre_6);}.cls-8{fill:url(#Degradado_sin_nombre_7);}.cls-9{fill:url(#Degradado_sin_nombre_8);}.cls-10{fill:url(#Degradado_sin_nombre_9);}.cls-11{fill:url(#Degradado_sin_nombre_10);}.cls-12{fill:none;stroke:#9e1724;stroke-linecap:round;stroke-width:13px;}</style><linearGradient id="Degradado_sin_nombre" x1="36.18" y1="189.78" x2="100.68" y2="176.78" gradientTransform="matrix(1, 0, 0, -1, 0, 229.89)" gradientUnits="userSpaceOnUse"><stop offset="0" stop-color="#f39400"/><stop offset="1" stop-color="#e33311"/></linearGradient><linearGradient id="Degradado_sin_nombre_2" x1="97.47" y1="211.76" x2="129.97" y2="167.76" gradientTransform="matrix(1, 0, 0, -1, 0, 229.89)" gradientUnits="userSpaceOnUse"><stop offset="0" stop-color="#ef9c00"/><stop offset="1" stop-color="#e2500c"/></linearGradient><linearGradient id="Degradado_sin_nombre_3" x1="155.01" y1="207.55" x2="152.01" y2="134.05" gradientTransform="matrix(1, 0, 0, -1, 0, 229.89)" gradientUnits="userSpaceOnUse"><stop offset="0" stop-color="#b15306"/><stop offset="1" stop-color="#ac250b"/></linearGradient><linearGradient id="Degradado_sin_nombre_4" x1="199.26" y1="160.4" x2="152.76" y2="110.4" gradientTransform="matrix(1, 0, 0, -1, 0, 229.89)" gradientUnits="userSpaceOnUse"><stop offset="0" stop-color="#791703"/><stop offset="1" stop-color="#961708"/></linearGradient><linearGradient id="Degradado_sin_nombre_5" x1="203.71" y1="102.09" x2="141.21" y2="77.59" gradientTransform="matrix(1, 0, 0, -1, 0, 229.89)" gradientUnits="userSpaceOnUse"><stop offset="0" stop-color="#6a0f02"/><stop offset="1" stop-color="#780f13"/></linearGradient><linearGradient id="Degradado_sin_nombre_6" x1="170.83" y1="47.96" x2="109.83" y2="71.46" gradientTransform="matrix(1, 0, 0, -1, 0, 229.89)" gradientUnits="userSpaceOnUse"><stop offset="0" stop-color="#590a0d"/><stop offset="1" stop-color="#8c0d28"/></linearGradient><linearGradient id="Degradado_sin_nombre_7" x1="117.09" y1="20.26" x2="79.59" y2="80.26" gradientTransform="matrix(1, 0, 0, -1, 0, 229.89)" gradientUnits="userSpaceOnUse"><stop offset="0" stop-color="#640821"/><stop offset="1" stop-color="#c1083c"/></linearGradient><linearGradient id="Degradado_sin_nombre_8" x1="59.34" y1="38.61" x2="50.84" y2="104.61" gradientTransform="matrix(1, 0, 0, -1, 0, 229.89)" gradientUnits="userSpaceOnUse"><stop offset="0" stop-color="#a10842"/><stop offset="1" stop-color="#da0439"/></linearGradient><linearGradient id="Degradado_sin_nombre_9" x1="15.96" y1="77.04" x2="56.96" y2="136.54" gradientTransform="matrix(1, 0, 0, -1, 0, 229.89)" gradientUnits="userSpaceOnUse"><stop offset="0" stop-color="#e60061"/><stop offset="1" stop-color="#e52312"/></linearGradient><linearGradient id="Degradado_sin_nombre_10" x1="7.07" y1="134.71" x2="69.07" y2="166.21" gradientTransform="matrix(1, 0, 0, -1, 0, 229.89)" gradientUnits="userSpaceOnUse"><stop offset="0" stop-color="#ea4b55"/><stop offset="1" stop-color="#e7460f"/></linearGradient></defs><path class="cls-1" d="M250.1,47.06a21.66,21.66,0,0,0,2.37,10.37,16.77,16.77,0,0,0,7,7,21.27,21.27,0,0,0,10.65,2.52c.79,0,2.09,0,3.89-.15a59.42,59.42,0,0,0,7.34-1.15A16.83,16.83,0,0,0,288,63.19V36.84H270.4v7.92h8.21V58.3a38.25,38.25,0,0,1-8.5.72c-3.31,0-5.9-1-7.77-3.17s-2.88-5-2.88-8.79V34.25c0-7.85,3.81-11.81,11.52-11.81A26,26,0,0,1,284.66,26l4.1-7A34.23,34.23,0,0,0,280,15.67a42.9,42.9,0,0,0-9-1.15,30,30,0,0,0-6.48.65,21.25,21.25,0,0,0-5.12,1.65,15.89,15.89,0,0,0-3.74,2.67A12.2,12.2,0,0,0,253,22.73a16.88,16.88,0,0,0-1.73,3.67,22.32,22.32,0,0,0-.94,3.89,36.41,36.41,0,0,0-.21,4Zm45.7,2.45a16,16,0,0,0,2.74,9.29A18.07,18.07,0,0,0,305.73,65a21.88,21.88,0,0,0,9.72,2.09A22.24,22.24,0,0,0,325.17,65a18.13,18.13,0,0,0,7.21-6.19,16.08,16.08,0,0,0,2.8-9.29V31.8a16.33,16.33,0,0,0-6-12.67,21.68,21.68,0,0,0-6.34-3.39,23.27,23.27,0,0,0-7.42-1.22,22.71,22.71,0,0,0-9.64,2.09,17.76,17.76,0,0,0-7.2,6.05,15.38,15.38,0,0,0-2.81,9.14Zm30,0a8.73,8.73,0,0,1-3,7.06,11.71,11.71,0,0,1-14.69,0,8.71,8.71,0,0,1-2.95-7.06V31.8A8.37,8.37,0,0,1,308.11,25a10.92,10.92,0,0,1,7.34-2.52A11.22,11.22,0,0,1,322.8,25a8.39,8.39,0,0,1,3,6.84ZM343,15.6V66H364.4c11,0,16.49-5,16.49-15.19q0-9.08-6.91-12.1a9.14,9.14,0,0,0,3.89-3.53,10.87,10.87,0,0,0,1.51-5.9c0-4.61-1.44-8-4.18-10.3s-6.4-3.38-10.94-3.38Zm9.36,19.58V23.52h11.73c3.89,0,5.91,1.94,5.91,5.76a6.55,6.55,0,0,1-.94,3.53,4.35,4.35,0,0,1-1.94,1.87,5,5,0,0,1-2.23.5Zm0,22.9v-15h12.38a7.63,7.63,0,0,1,2.67.44,6.85,6.85,0,0,1,2.16,1.36A6.46,6.46,0,0,1,371,47.28a13,13,0,0,1,.5,3.53,10.8,10.8,0,0,1-.58,3.74,4.52,4.52,0,0,1-1.65,2.23,5.78,5.78,0,0,1-2.31,1,10.61,10.61,0,0,1-2.8.29ZM388.3,15.6V66h9.43V15.6Zm19,0V66h34V58.08H416.72V44h21.81V36.05H416.72V23.52h24V15.6Zm41.27,0V66H458V47.57h8.35L477.86,66h10.51L475.85,46.27A12.67,12.67,0,0,0,483.62,41a16.56,16.56,0,0,0,2.67-9.44c0-4.75-1.37-8.64-4.11-11.59s-6.84-4.39-12.24-4.39Zm9.43,24V23.52h11.95a6.39,6.39,0,0,1,5.26,2.16,9.15,9.15,0,0,1,1.73,5.9,9.24,9.24,0,0,1-1.73,6c-1.15,1.44-2.95,2.09-5.26,2.09Zm66.4-24V47.71l-21-32.11h-8.14V66h9.36V33.74L525.83,66h7.92V15.6ZM541,49.51a16,16,0,0,0,2.74,9.29A18.07,18.07,0,0,0,550.91,65a21.89,21.89,0,0,0,9.73,2.09A22.23,22.23,0,0,0,570.35,65a18,18,0,0,0,7.2-6.19,16,16,0,0,0,2.81-9.29V31.8a16.33,16.33,0,0,0-6-12.67,21.55,21.55,0,0,0-6.34-3.39,23.26,23.26,0,0,0-7.41-1.22A22.73,22.73,0,0,0,551,16.61a17.7,17.7,0,0,0-7.2,6.05A15.38,15.38,0,0,0,541,31.8Zm30,0a8.76,8.76,0,0,1-3,7.06,11.71,11.71,0,0,1-14.69,0,8.71,8.71,0,0,1-2.95-7.06V31.8A8.37,8.37,0,0,1,553.29,25a10.93,10.93,0,0,1,7.35-2.52A11.2,11.2,0,0,1,568,25a8.42,8.42,0,0,1,3,6.84ZM631.37,15.6V66H650a22.3,22.3,0,0,0,9.72-2.09,18.17,18.17,0,0,0,7.2-6.19,16.14,16.14,0,0,0,2.73-9.22V32.88a15.38,15.38,0,0,0-2.81-9.14,17.7,17.7,0,0,0-7.2-6A23,23,0,0,0,650,15.6Zm28.87,32.9a8.76,8.76,0,0,1-3,7.06A10.65,10.65,0,0,1,650,58.08h-9.22V23.52H650a12.07,12.07,0,0,1,5.11,1.08,9.34,9.34,0,0,1,3.74,3.17,9.22,9.22,0,0,1,1.44,5.11ZM677.5,15.6V66h34V58.08H686.93V44h21.81V36.05H686.93V23.52h24V15.6Z" transform="translate(-10.31 -1.03)"/><path class="cls-1" d="M251.46,195.25c13.54,4.75,25.2,7.05,35,7.05,2.3,0,4.17,0,5.76-.14a48.85,48.85,0,0,0,5.9-.43,33.22,33.22,0,0,0,6.19-1.3q2.6-.85,5.62-2.16a14.48,14.48,0,0,0,5-3.74,25.62,25.62,0,0,0,3.89-5.33,24.32,24.32,0,0,0,2.73-7.34,49.71,49.71,0,0,0,1-9.8,29.45,29.45,0,0,0-1.15-8.06,47.53,47.53,0,0,0-2.45-6.48,22.78,22.78,0,0,0-4.32-5.18c-2-1.73-3.6-3-5-4a51.3,51.3,0,0,0-6.34-3.16c-2.73-1.16-4.89-2.16-6.33-2.74-1.59-.58-3.89-1.3-6.91-2.45a49.78,49.78,0,0,1-5.62-1.87,36.42,36.42,0,0,1-4.61-2,16.08,16.08,0,0,1-4-2.73,12.54,12.54,0,0,1-2.45-3.31,10.46,10.46,0,0,1-1-4.76c0-8.2,5.48-12.38,16.56-12.38,6.63,0,14.12,2.59,22.18,7.49l8.78-13.83a48.78,48.78,0,0,0-15.69-7.34A61.76,61.76,0,0,0,288.9,97a59.42,59.42,0,0,0-17.13,2.3,25.81,25.81,0,0,0-11.09,6.48,26.73,26.73,0,0,0-5.47,8.93,31,31,0,0,0-1.59,10.51,23.74,23.74,0,0,0,1.88,9.8,23.06,23.06,0,0,0,4.75,7.34,30.33,30.33,0,0,0,7.2,5.47,59,59,0,0,0,8.06,4c2.31.87,5.33,1.88,8.93,3,2.88,1.15,5.33,2,7.2,2.88a60.84,60.84,0,0,1,6.05,3.17,14.89,14.89,0,0,1,4.61,4.89,12.85,12.85,0,0,1,1.58,6.19,19.08,19.08,0,0,1-1.44,7.64,9.72,9.72,0,0,1-4.18,4.46,22.6,22.6,0,0,1-5.47,1.87,39.56,39.56,0,0,1-6.33.43,64.5,64.5,0,0,1-12.68-1.29,170,170,0,0,1-17.71-5Zm116-96L330.9,200h19.59l7.34-20.45H392L399.45,200h19.44L382.31,99.2Zm20.45,66.24H361.58l13.24-38.3ZM489.45,99.2v64.22L447.4,99.2H431.13V200h18.72V135.49L492.33,200h15.84V99.2Zm84.85,0v96.48a10.49,10.49,0,0,1-1.59,5.47,13.25,13.25,0,0,1-4.61,4.32,55.83,55.83,0,0,1-5.32,3,39.82,39.82,0,0,1-5.48,2.3l5.48,13a3.61,3.61,0,0,0,1-.43c1.88-.58,3.46-1,4.61-1.44s2.74-1.15,5-2.16,4.18-2,5.76-2.88a40.7,40.7,0,0,0,5-3.75,20.44,20.44,0,0,0,4.61-4.75,23.62,23.62,0,0,0,2.88-5.76,18.3,18.3,0,0,0,1.3-6.91V99.2Zm97.32,0V165a28,28,0,0,1-2.31,11.66,14.91,14.91,0,0,1-6.77,7.2c-3,1.73-6.76,2.45-11.23,2.45-6.62,0-11.66-1.73-15.12-5.33s-5-8.93-5-16V99.2H612.29V165c0,11.66,3.31,20.73,10.08,27.36s16.27,9.93,28.94,9.93,22.32-3.31,29.09-9.93,10.08-15.7,10.08-27.36V99.2Zm62.89,0L697.93,200h19.59l7.34-20.45H759L766.48,200h19.44L749.34,99.2ZM755,165.44H728.61l13.24-38.3ZM856.48,99.2v64.22l-42-64.22H798.16V200h18.73V135.49L859.36,200h15.85V99.2Z" transform="translate(-10.31 -1.03)"/><path class="cls-1" d="M251.46,195.25l-2.87-.88-.83,2.76,2.71,1Zm40.76,6.91v-3h-.28Zm5.9-.43-.37-3Zm6.19-1.3.95,2.85h0Zm5.62-2.16-1.18-2.76h0Zm5-3.74-2.12-2.12-.05.05-.05,0Zm3.89-5.33-2.61-1.49h0Zm2.73-7.34,2.94.58ZM321.45,164l2.89-.8v0ZM319,157.52l2.72-1.26-.06-.13-.07-.12Zm-4.32-5.18,2-2.21,0,0,0,0Zm-5-4,1.72-2.45-.09-.06-.09-.06Zm-6.34-3.16-1.16,2.76h0ZM297,142.4l1.11-2.79h0l-.05,0ZM290.06,140l1.06-2.8-.1,0-.12,0Zm-5.62-1.87,1.22-2.74-.13-.06-.14-.05Zm-4.61-2,1.34-2.68h0Zm-4-2.73,2.12-2.12h0ZM273.35,130l2.69-1.35h0Zm37.73-9.65-1.56,2.56,2.52,1.53,1.57-2.48Zm8.78-13.83,2.54,1.61,1.53-2.41-2.34-1.65ZM304.17,99.2l.76-2.9h0Zm-32.4.14-.87-2.87h0Zm-11.09,6.48-2.18-2.06,0,0,0,0Zm-5.47,8.93,2.82,1h0Zm.29,20.31,2.75-1.19v-.05Zm4.75,7.34,2.2-2,0,0,0,0Zm15.26,9.5,1.06-2.81h0Zm8.93,3,1.11-2.79-.09,0-.11,0Zm7.2,2.88-1.26,2.72Zm6.05,3.17,1.74-2.45-.1-.07-.1-.06Zm4.61,4.89-2.65,1.42h0Zm.14,13.83,2.68,1.34,0-.08,0-.08Zm-4.18,4.46,1.26,2.72,0,0,.05,0ZM292.79,186l.5,3h0Zm-19-.86.59-2.94Zm-17.71-5,.93-2.85-2.9-1-.9,2.93Zm-5.6,18q20.6,7.23,36,7.22v-6c-9.35,0-20.66-2.2-34-6.88Zm36,7.22c2.25,0,4.28,0,6-.15l-.55-6c-1.42.13-3.13.13-5.48.13Zm5.76-.14a51.93,51.93,0,0,0,6.27-.46l-.74-5.95a46.18,46.18,0,0,1-5.53.41Zm6.27-.46a36.06,36.06,0,0,0,6.77-1.42l-1.9-5.69a30.13,30.13,0,0,1-5.61,1.16Zm6.77-1.42q2.73-.92,5.85-2.25l-2.36-5.52c-2,.84-3.75,1.53-5.39,2.08Zm5.85-2.25a17.45,17.45,0,0,0,6.08-4.48l-4.44-4a11.39,11.39,0,0,1-4,3Zm6-4.38a28.25,28.25,0,0,0,4.37-6l-5.21-3a22.55,22.55,0,0,1-3.4,4.7Zm4.37-6a27.18,27.18,0,0,0,3.07-8.25l-5.88-1.17a21.41,21.41,0,0,1-2.4,6.44Zm3.07-8.25a52.6,52.6,0,0,0,1.07-10.38h-6a46.65,46.65,0,0,1-1,9.21Zm1.07-10.38a32.41,32.41,0,0,0-1.26-8.86l-5.78,1.6a26.54,26.54,0,0,1,1,7.26Zm-1.27-8.91a49.71,49.71,0,0,0-2.61-6.89l-5.44,2.52a44.05,44.05,0,0,1,2.29,6.07ZM321.59,156a25.62,25.62,0,0,0-4.88-5.88l-4.07,4.41a20,20,0,0,1,3.77,4.49Zm-5-5.95a66.39,66.39,0,0,0-5.27-4.21l-3.44,4.91c1.31.92,2.8,2.13,4.81,3.85Zm-5.45-4.33a54.23,54.23,0,0,0-6.71-3.36l-2.33,5.53a48.45,48.45,0,0,1,6,3Zm-6.71-3.36c-2.53-1.06-5-2.19-6.39-2.76l-2.23,5.57c1.47.59,3.34,1.48,6.29,2.72ZM298,139.58c-1.82-.66-3.79-1.26-6.87-2.43l-2.13,5.6c3,1.14,5.61,2,6.95,2.47Zm-7.09-2.51a47.05,47.05,0,0,1-5.24-1.73l-2.44,5.48a53.75,53.75,0,0,0,6,2Zm-5.51-1.84a34.23,34.23,0,0,1-4.22-1.85l-2.68,5.37a42.08,42.08,0,0,0,5,2.18Zm-4.22-1.85a13.53,13.53,0,0,1-3.25-2.17l-4.24,4.24a19.1,19.1,0,0,0,4.81,3.3Zm-3.25-2.17a9.18,9.18,0,0,1-1.88-2.54l-5.37,2.69a15.37,15.37,0,0,0,3,4.09ZM276,128.67a7.44,7.44,0,0,1-.7-3.41h-6a13.43,13.43,0,0,0,1.33,6.1Zm-.7-3.41c0-3.37,1.08-5.48,2.93-6.87,2-1.51,5.38-2.51,10.63-2.51v-6c-5.83,0-10.73,1.08-14.24,3.72-3.66,2.75-5.32,6.83-5.32,11.66Zm13.56-9.38c5.87,0,12.81,2.31,20.62,7.05l3.12-5.13c-8.32-5-16.36-7.92-23.74-7.92Zm24.71,6.1,8.79-13.83-5.07-3.22-8.78,13.83Zm8-17.89a51.74,51.74,0,0,0-16.66-7.79l-1.53,5.8A45.87,45.87,0,0,1,318.13,109Zm-16.68-7.8a64.9,64.9,0,0,0-16-2.25v6a58.43,58.43,0,0,1,14.52,2.07ZM288.9,94a62.6,62.6,0,0,0-18,2.43l1.74,5.74A56.59,56.59,0,0,1,288.9,100Zm-18,2.45a28.69,28.69,0,0,0-12.35,7.27l4.36,4.13c2.16-2.29,5.28-4.22,9.83-5.69Zm-12.4,7.33a29.6,29.6,0,0,0-6.06,9.91l5.64,2a23.75,23.75,0,0,1,4.88-8Zm-6.06,9.91a33.94,33.94,0,0,0-1.77,11.53h6a28,28,0,0,1,1.41-9.48Zm-1.77,11.53a26.8,26.8,0,0,0,2.14,11l5.47-2.47a20.76,20.76,0,0,1-1.61-8.56Zm2.12,11a26.09,26.09,0,0,0,5.39,8.28l4.24-4.24a20.1,20.1,0,0,1-4.12-6.41Zm5.3,8.19a33.56,33.56,0,0,0,7.92,6l3-5.21a27.64,27.64,0,0,1-6.49-4.91Zm7.92,6a62.45,62.45,0,0,0,8.5,4.23l2.11-5.62a56,56,0,0,1-7.63-3.82Zm8.5,4.23c2.38.89,5.46,1.92,9.07,3.07l1.82-5.71c-3.59-1.15-6.55-2.14-8.78-3Zm8.87,3c3.06,1.23,5.27,2,7.05,2.82l2.52-5.45c-2-.9-4.65-1.86-7.35-2.94Zm7.05,2.82a59,59,0,0,1,5.76,3l3.09-5.15a69.4,69.4,0,0,0-6.33-3.32Zm5.56,2.89a11.81,11.81,0,0,1,3.71,3.87l5.29-2.84a17.91,17.91,0,0,0-5.51-5.92Zm3.71,3.87a9.73,9.73,0,0,1,1.23,4.77h6a15.78,15.78,0,0,0-1.94-7.61Zm1.23,4.77a15.86,15.86,0,0,1-1.2,6.45l5.52,2.37a22,22,0,0,0,1.68-8.82Zm-1.12,6.29a6.78,6.78,0,0,1-2.84,3.13l2.69,5.36a12.64,12.64,0,0,0,5.51-5.8ZM297,181.44a19.48,19.48,0,0,1-4.71,1.63l1,5.92a25,25,0,0,0,6.23-2.11Zm-4.71,1.63a37.12,37.12,0,0,1-5.84.39v6a43.33,43.33,0,0,0,6.83-.47Zm-5.84.39a61.78,61.78,0,0,1-12.09-1.23l-1.17,5.88a67.13,67.13,0,0,0,13.26,1.35Zm-12.09-1.23A168.67,168.67,0,0,1,257,177.28l-1.86,5.7a171.42,171.42,0,0,0,18.06,5.13Zm-21.17-3-4.61,15.12,5.74,1.75L258.94,181Zm114.28-80v-3h-2.1l-.72,2ZM330.9,200l-2.82-1-1.46,4h4.28Zm19.59,0v3h2.11l.71-2Zm7.34-20.45v-3h-2.11l-.71,2Zm34.13,0,2.82-1-.72-2H392ZM399.45,200l-2.82,1,.72,2h2.1Zm19.44,0v3h4.28l-1.46-4ZM382.31,99.2l2.82-1-.72-2h-2.1Zm5.62,66.24v3h4.2l-1.36-4Zm-26.35,0-2.84-1-1.38,4h4.22Zm13.24-38.3,2.84-1-2.82-8.25L372,126.15Zm-10.16-29L328.08,199l5.64,2,36.58-100.8ZM330.9,203h19.59v-6H330.9Zm22.41-2,7.34-20.44-5.64-2L347.66,199Zm4.52-18.46H392v-6H357.83Zm31.31-2L396.63,201l5.64-2.06-7.49-20.45ZM399.45,203h19.44v-6H399.45Zm22.26-4L385.13,98.18l-5.64,2L416.07,201ZM382.31,96.2H367.48v6h14.83Zm5.62,66.24H361.58v6h26.35Zm-23.52,4,13.25-38.3-5.67-2-13.25,38.31ZM372,128.11l13.11,38.3,5.68-1.94-13.11-38.31ZM489.45,99.2v-3h-3v3Zm0,64.22-2.51,1.65,5.51,8.41V163.42ZM447.4,99.2l2.52-1.64L449,96.2H447.4Zm-16.27,0v-3h-3v3Zm0,100.8h-3v3h3Zm18.72,0v3h3v-3Zm0-64.51,2.51-1.65-5.51-8.36v10ZM492.33,200l-2.5,1.65.89,1.35h1.61Zm15.84,0v3h3v-3Zm0-100.8h3v-3h-3Zm-21.72,0v64.22h6V99.2ZM492,161.78l-42-64.22-5,3.28,42.05,64.23ZM447.4,96.2H431.13v6H447.4Zm-19.27,3V200h6V99.2Zm3,103.8h18.72v-6H431.13Zm21.72-3V135.49h-6V200Zm-5.5-62.86,42.48,64.51,5-3.3-42.48-64.51Zm45,65.86h15.84v-6H492.33Zm18.84-3V99.2h-6V200Zm-3-103.8H489.45v6h18.72Zm66.13,3v-3h-3v3Zm-1.59,102,2.5,1.67,0-.08,0-.08Zm-4.61,4.32-1.48-2.6-.07,0-.07,0Zm-5.32,3-1.34-2.69-.05,0,0,0Zm-5.48,2.3-1-2.83-3,1.07,1.23,2.93Zm5.48,13L560,224.93l.78,1.83h2Zm1-.43-.88-2.87-.23.07-.23.11Zm4.61-1.44,1.06,2.81Zm5-2.16-1.2-2.75Zm5.76-2.88,1.44,2.63,0,0,.06,0Zm5-3.75-1.83-2.37,0,0-.05,0Zm4.61-4.75-2.43-1.76,0,0,0,.05Zm2.88-5.76-2.78-1.11,0,0v0ZM593,99.2h3v-3h-3Zm-21.72,0v96.48h6V99.2Zm0,96.48a7.53,7.53,0,0,1-1.18,4l5.18,3a13.46,13.46,0,0,0,2-7Zm-1.08,3.81a10.46,10.46,0,0,1-3.6,3.38l3,5.21a16.4,16.4,0,0,0,5.62-5.26ZM566.48,203a53.36,53.36,0,0,1-5,2.86l2.68,5.37a63.54,63.54,0,0,0,5.61-3.18Zm-5.14,2.91a36,36,0,0,1-5,2.11l2,5.65a40.48,40.48,0,0,0,5.9-2.49Zm-6.8,6.11,5.47,13,5.53-2.34-5.47-13Zm8.24,14.79a3.34,3.34,0,0,0,1.05-.17l.51-.2c.24-.1.53-.25.79-.38l-2.69-5.37-.35.18-.19.09h0l.1,0a1.28,1.28,0,0,1,.26-.07,2.82,2.82,0,0,1,.52-.05Zm1.89-.57c1.72-.52,3.51-1,4.78-1.49l-2.11-5.62c-1,.39-2.41.76-4.44,1.38Zm4.78-1.49c1.25-.47,3-1.25,5.19-2.22l-2.41-5.5c-2.39,1-3.84,1.7-4.89,2.1Zm5.19-2.22c2.43-1.07,4.39-2.13,6-3l-2.87-5.27c-1.57.86-3.35,1.82-5.53,2.77Zm6.1-3.06a43.25,43.25,0,0,0,5.43-4l-3.87-4.58a38.68,38.68,0,0,1-4.65,3.47Zm5.32-3.94a23.34,23.34,0,0,0,5.28-5.46l-5-3.33a17.53,17.53,0,0,1-3.94,4Zm5.21-5.36a26.77,26.77,0,0,0,3.26-6.48l-5.62-2.1a20.93,20.93,0,0,1-2.5,5.05Zm3.24-6.41a21.54,21.54,0,0,0,1.51-8h-6a15.54,15.54,0,0,1-1.08,5.8Zm1.51-8V99.2h-6v96.48ZM593,96.2H574.3v6H593Zm78.6,3v-3h-3v3Zm-2.31,77.47,2.73,1.24h0Zm-6.77,7.2-1.39-2.66,0,0,0,0ZM636.19,181l2.17-2.08Zm-5-81.79h3v-3h-3Zm-18.86,0v-3h-3v3Zm10.08,93.17,2.12-2.12v0h0Zm58,0,2.1,2.14h0ZM690.48,99.2h3v-3h-3Zm-21.86,0V165h6V99.2Zm0,65.81a25.06,25.06,0,0,1-2,10.42l5.46,2.48a31,31,0,0,0,2.58-12.9Zm-2,10.42a11.89,11.89,0,0,1-5.43,5.78l2.79,5.32a18,18,0,0,0,8.1-8.62Zm-5.52,5.84c-2.41,1.37-5.57,2-9.75,2v6c4.76,0,9.08-.76,12.72-2.84Zm-9.75,2c-6.11,0-10.25-1.59-12.95-4.41L634,183.07c4.2,4.38,10.15,6.25,17.28,6.25Zm-12.95-4.41c-2.7-2.81-4.21-7.24-4.21-13.9h-6c0,7.44,1.67,13.67,5.88,18.06ZM634.15,165V99.2h-6V165Zm-3-68.81H612.29v6h18.86Zm-21.86,3V165h6V99.2Zm0,65.81c0,12.26,3.5,22.18,11,29.5l4.2-4.29c-6.06-5.92-9.18-14.15-9.18-25.21Zm11,29.48c7.36,7.36,17.88,10.81,31.06,10.81v-6c-12.16,0-20.93-3.17-26.82-9.05Zm31.06,10.81c13.19,0,23.7-3.45,31.19-10.79l-4.2-4.29c-6,5.92-14.83,9.08-27,9.08Zm31.21-10.81c7.3-7.3,11-17.19,11-29.48h-6c0,11-3.25,19.28-9.2,25.24Zm11-29.48V99.2h-6V165Zm-3-68.81H671.62v6h18.86Zm44,3v-3h-2.1l-.72,2ZM697.93,200l-2.82-1-1.45,4h4.27Zm19.59,0v3h2.11l.71-2Zm7.34-20.45v-3h-2.11l-.71,2Zm34.13,0,2.82-1-.72-2H759ZM766.48,200l-2.82,1,.72,2h2.1Zm19.44,0v3h4.28l-1.46-4ZM749.34,99.2l2.82-1-.71-2h-2.11ZM755,165.44v3h4.2l-1.36-4Zm-26.35,0-2.84-1-1.37,4h4.21Zm13.24-38.3,2.84-1-2.82-8.25L739,126.15Zm-10.16-29L695.11,199l5.65,2,36.57-100.8ZM697.93,203h19.59v-6H697.93Zm22.41-2,7.35-20.44-5.65-2L714.7,199Zm4.52-18.46H759v-6H724.86Zm31.31-2L763.66,201,769.3,199l-7.49-20.45ZM766.48,203h19.44v-6H766.48Zm22.26-4L752.16,98.18l-5.64,2L783.1,201ZM749.34,96.2H734.51v6h14.83ZM755,162.44H728.61v6H755Zm-23.52,4,13.25-38.3-5.67-2-13.25,38.31ZM739,128.11l13.1,38.3,5.68-1.94-13.11-38.31ZM856.48,99.2v-3h-3v3Zm0,64.22L854,165.07l5.51,8.41V163.42Zm-42-64.22L817,97.56l-.89-1.36h-1.62Zm-16.28,0v-3h-3v3Zm0,100.8h-3v3h3Zm18.73,0v3h3v-3Zm0-64.51,2.5-1.65-5.5-8.36v10ZM859.36,200l-2.5,1.65.89,1.35h1.61Zm15.85,0v3h3v-3Zm0-100.8h3v-3h-3Zm-21.73,0v64.22h6V99.2ZM859,161.78,817,97.56l-5,3.28,42,64.23ZM814.44,96.2H798.16v6h16.28Zm-19.28,3V200h6V99.2Zm3,103.8h18.73v-6H798.16Zm21.73-3V135.49h-6V200Zm-5.51-62.86,42.48,64.51,5-3.3-42.48-64.51Zm45,65.86h15.85v-6H859.36Zm18.85-3V99.2h-6V200Zm-3-103.8H856.48v6h18.73Z" transform="translate(-10.31 -1.03)"/><path class="cls-1" d="M1213.82,18.6V69h18.58a22.24,22.24,0,0,0,9.72-2.09,18.1,18.1,0,0,0,7.2-6.19,16.15,16.15,0,0,0,2.74-9.22V35.88a15.44,15.44,0,0,0-2.81-9.14,17.76,17.76,0,0,0-7.2-6,23,23,0,0,0-9.65-2.09Zm28.88,32.9a8.74,8.74,0,0,1-3,7.06,10.63,10.63,0,0,1-7.27,2.52h-9.22V26.52h9.22a12,12,0,0,1,5.11,1.08,8.73,8.73,0,0,1,5.19,8.28ZM1260,18.6V69h9.43V18.6Zm19,0V69h9.44V50.57h8.35L1308.24,69h10.51l-12.53-19.73A12.66,12.66,0,0,0,1314,44a16.55,16.55,0,0,0,2.66-9.44c0-4.75-1.37-8.64-4.1-11.59s-6.84-4.39-12.24-4.39Zm9.44,24V26.52h12a6.38,6.38,0,0,1,5.25,2.16,9.1,9.1,0,0,1,1.73,5.9,9.18,9.18,0,0,1-1.73,6c-1.15,1.44-3,2.09-5.25,2.09Zm37.88-24V69h34.06V61.08h-24.62V47h21.81V39.05h-21.81V26.52h24V18.6Zm72.17,39.74a25.68,25.68,0,0,1-12.68,3.82,10,10,0,0,1-4.82-1,8.07,8.07,0,0,1-3-2.52,12.58,12.58,0,0,1-1.73-4.17,32.14,32.14,0,0,1-.79-5c-.15-1.59-.15-3.46-.15-5.76,0-1.59,0-2.95.07-4.11s.15-2.44.29-3.81a18.86,18.86,0,0,1,.72-3.39,15.51,15.51,0,0,1,1.23-2.8,7.47,7.47,0,0,1,1.87-2.31,8.94,8.94,0,0,1,2.73-1.37,13.54,13.54,0,0,1,3.6-.5c3.89,0,8.14,1.3,12.68,3.82l3-7.78a34.2,34.2,0,0,0-7.2-2.74,41.37,41.37,0,0,0-5.62-1.08c-1.15-.07-2.08-.14-2.88-.14a28.13,28.13,0,0,0-6.84.79,17.21,17.21,0,0,0-5,2,12.84,12.84,0,0,0-3.6,3.24,20.16,20.16,0,0,0-2.3,4.1,22.51,22.51,0,0,0-1.37,5,40.3,40.3,0,0,0-.65,5.4c-.14,1.66-.14,3.53-.14,5.69,0,1.87,0,3.6.07,5s.22,3.09.43,4.82A25.43,25.43,0,0,0,1369,62a12,12,0,0,0,2.52,3.38,17.81,17.81,0,0,0,3.45,2.52,16,16,0,0,0,4.76,1.66,31.05,31.05,0,0,0,6,.5c.8,0,1.73,0,2.88-.07a32.69,32.69,0,0,0,5.62-1.15,30.76,30.76,0,0,0,7.2-2.74Zm40.85,0a25.68,25.68,0,0,1-12.68,3.82,10,10,0,0,1-4.82-1,8.07,8.07,0,0,1-3-2.52,12.58,12.58,0,0,1-1.73-4.17,32.14,32.14,0,0,1-.79-5c-.15-1.59-.15-3.46-.15-5.76,0-1.59,0-2.95.07-4.11s.15-2.44.29-3.81a18.86,18.86,0,0,1,.72-3.39,15.51,15.51,0,0,1,1.23-2.8,7.47,7.47,0,0,1,1.87-2.31,8.94,8.94,0,0,1,2.73-1.37,13.54,13.54,0,0,1,3.6-.5c3.89,0,8.14,1.3,12.68,3.82l3-7.78a34.2,34.2,0,0,0-7.2-2.74,41.37,41.37,0,0,0-5.62-1.08c-1.15-.07-2.08-.14-2.88-.14a28.13,28.13,0,0,0-6.84.79,17.21,17.21,0,0,0-5,2,12.84,12.84,0,0,0-3.6,3.24,20.16,20.16,0,0,0-2.3,4.1,22.51,22.51,0,0,0-1.37,5,40.3,40.3,0,0,0-.65,5.4c-.14,1.66-.14,3.53-.14,5.69,0,1.87,0,3.6.07,5s.22,3.09.43,4.82a25.43,25.43,0,0,0,2.67,8.43,12,12,0,0,0,2.52,3.38,17.81,17.81,0,0,0,3.45,2.52,16,16,0,0,0,4.76,1.66,31.05,31.05,0,0,0,6,.5c.8,0,1.73,0,2.88-.07a32.69,32.69,0,0,0,5.62-1.15,30.76,30.76,0,0,0,7.2-2.74Zm10-39.74V69h9.43V18.6Zm17.26,33.91a16,16,0,0,0,2.73,9.29,18.1,18.1,0,0,0,7.2,6.19,21.82,21.82,0,0,0,9.72,2.09,22.24,22.24,0,0,0,9.72-2.09,18.1,18.1,0,0,0,7.2-6.19,16.09,16.09,0,0,0,2.81-9.29V34.8a16.38,16.38,0,0,0-6-12.67,21.62,21.62,0,0,0-6.33-3.39,23.32,23.32,0,0,0-7.42-1.22,22.79,22.79,0,0,0-9.65,2.09,17.83,17.83,0,0,0-7.2,6.05,15.44,15.44,0,0,0-2.8,9.14Zm30,0a8.76,8.76,0,0,1-3,7.06,11.71,11.71,0,0,1-14.69,0,8.68,8.68,0,0,1-3-7.06V34.8a8.34,8.34,0,0,1,3-6.84,10.92,10.92,0,0,1,7.34-2.52,11.22,11.22,0,0,1,7.35,2.52,8.42,8.42,0,0,1,3,6.84ZM1485.35,1l-6.84,8.64h6.77L1493.85,1Zm56.87,17.57V50.71l-21-32.11h-8.13V69h9.36V36.74L1543.66,69h7.92V18.6Zm39.9,0V69h18.58a22.3,22.3,0,0,0,9.72-2.09,18.17,18.17,0,0,0,7.2-6.19,16.14,16.14,0,0,0,2.73-9.22V35.88a15.38,15.38,0,0,0-2.81-9.14,17.7,17.7,0,0,0-7.2-6,23,23,0,0,0-9.64-2.09ZM1611,51.5a8.76,8.76,0,0,1-3,7.06,10.65,10.65,0,0,1-7.27,2.52h-9.22V26.52h9.22a12.07,12.07,0,0,1,5.11,1.08,9.34,9.34,0,0,1,3.74,3.17,9.22,9.22,0,0,1,1.44,5.11Zm17.26-32.9V69h34V61.08h-24.62V47h21.81V39.05h-21.81V26.52h24V18.6Z" transform="translate(-10.31 -1.03)"/><path class="cls-1" d="M1280.42,181.69c-9.07,5.18-17.56,7.63-25.34,7.63a19.93,19.93,0,0,1-9.65-2,16.15,16.15,0,0,1-6-5,25,25,0,0,1-3.45-8.35,64,64,0,0,1-1.59-9.93c-.28-3.17-.28-6.92-.28-11.52,0-3.17,0-5.91.14-8.21a75.75,75.75,0,0,1,.58-7.63,35.77,35.77,0,0,1,1.44-6.77,31.78,31.78,0,0,1,2.44-5.62,15.19,15.19,0,0,1,3.75-4.61,17.72,17.72,0,0,1,5.47-2.73,26.14,26.14,0,0,1,7.2-1c7.78,0,16.27,2.59,25.34,7.63l6-15.55a68.18,68.18,0,0,0-14.4-5.47,76.93,76.93,0,0,0-11.23-2.16c-2.3-.15-4.18-.29-5.76-.29a56.21,56.21,0,0,0-13.68,1.58,34.31,34.31,0,0,0-10.08,4,25.67,25.67,0,0,0-7.2,6.48,39,39,0,0,0-4.61,8.2,45,45,0,0,0-2.73,9.94,77.81,77.81,0,0,0-1.3,10.8c-.29,3.31-.29,7.06-.29,11.38,0,3.74,0,7.2.15,10.08s.43,6.19.86,9.64a44.93,44.93,0,0,0,2,8.93,46,46,0,0,0,3.31,7.92,23.57,23.57,0,0,0,5,6.77,35.5,35.5,0,0,0,6.91,5,32,32,0,0,0,9.5,3.31,62.28,62.28,0,0,0,12.1,1c1.58,0,3.46,0,5.76-.14a66.85,66.85,0,0,0,11.23-2.31,60.9,60.9,0,0,0,14.4-5.47Zm19.93-79.49V203h18.87V102.2Zm38,0V203h42.77c21.89,0,33-10.08,33-30.38q0-18.15-13.82-24.2a18.26,18.26,0,0,0,7.78-7,21.87,21.87,0,0,0,3-11.81c0-9.22-2.88-16-8.35-20.59s-12.82-6.77-21.89-6.77ZM1357,141.37V118h23.47c7.78,0,11.81,3.89,11.81,11.52a13.2,13.2,0,0,1-1.87,7.06,8.72,8.72,0,0,1-3.89,3.74,10.05,10.05,0,0,1-4.46,1Zm0,45.79V157.21h24.77a15.52,15.52,0,0,1,5.33.86,13.93,13.93,0,0,1,4.32,2.74,12.66,12.66,0,0,1,2.88,4.75,26.3,26.3,0,0,1,1,7.06,22.06,22.06,0,0,1-1.15,7.48,9.13,9.13,0,0,1-3.31,4.47,11.69,11.69,0,0,1-4.61,2,21.31,21.31,0,0,1-5.61.58Zm71.84-85V203H1497V187.16h-49.24V158.94h43.63V143.1h-43.63V118h48V102.2Zm82.55,0V203h18.86V166.14H1547L1570,203h21l-25-39.46c6.91-1.72,12.09-5.32,15.55-10.51a33.09,33.09,0,0,0,5.33-18.86c0-9.51-2.74-17.28-8.21-23.19s-13.68-8.78-24.48-8.78Zm18.86,48.1V118h23.91c4.61,0,8.21,1.44,10.51,4.32s3.46,6.77,3.46,11.81-1.16,9.07-3.46,12-5.9,4.18-10.51,4.18Zm70.6,47.95c13.53,4.75,25.2,7.05,35,7.05,2.3,0,4.17,0,5.76-.14a48.85,48.85,0,0,0,5.9-.43,32.87,32.87,0,0,0,6.19-1.3q2.6-.85,5.62-2.16a14.39,14.39,0,0,0,5-3.74,25.27,25.27,0,0,0,3.89-5.33,24.32,24.32,0,0,0,2.73-7.34,49.71,49.71,0,0,0,1-9.8,29.45,29.45,0,0,0-1.15-8.06,46.25,46.25,0,0,0-2.45-6.48,22.78,22.78,0,0,0-4.32-5.18c-2-1.73-3.6-3-5-4a51.77,51.77,0,0,0-6.33-3.16c-2.74-1.16-4.9-2.16-6.34-2.74s-3.89-1.3-6.91-2.45a49.78,49.78,0,0,1-5.62-1.87,37.06,37.06,0,0,1-4.61-2,16.46,16.46,0,0,1-4-2.73,12.54,12.54,0,0,1-2.45-3.31,10.46,10.46,0,0,1-1-4.76c0-8.2,5.47-12.38,16.56-12.38,6.62,0,14.11,2.59,22.17,7.49l8.79-13.83a48.93,48.93,0,0,0-15.7-7.34,61.75,61.75,0,0,0-15.26-2.16,59.44,59.44,0,0,0-17.14,2.3,25.81,25.81,0,0,0-11.09,6.48,26.73,26.73,0,0,0-5.47,8.93,31,31,0,0,0-1.58,10.51,23.74,23.74,0,0,0,1.87,9.8,23.06,23.06,0,0,0,4.75,7.34,30.54,30.54,0,0,0,7.2,5.47,59,59,0,0,0,8.06,4c2.31.87,5.33,1.88,8.93,3,2.88,1.15,5.33,2,7.2,2.88a60.84,60.84,0,0,1,6,3.17,14.79,14.79,0,0,1,4.61,4.89,12.74,12.74,0,0,1,1.58,6.19,18.9,18.9,0,0,1-1.44,7.64,9.76,9.76,0,0,1-4.17,4.46,22.81,22.81,0,0,1-5.48,1.87,39.39,39.39,0,0,1-6.33.43,64.4,64.4,0,0,1-12.67-1.29,170,170,0,0,1-17.72-5Zm85.2-96V203h68.11V187.16H1705V158.94h43.63V143.1H1705V118h48V102.2Zm79.09,62.93q0,11.88,4.75,20.73a33.48,33.48,0,0,0,14,14c6,3.46,13.24,5,21.31,5,1.58,0,4.17,0,7.77-.29a119.23,119.23,0,0,0,14.69-2.3c6-1.15,10.51-2.88,13.25-4.9v-52.7h-35.14v15.84h16.42v27.07c-4.18,1-9.79,1.44-17,1.44-6.63,0-11.81-2-15.55-6.33-3.89-4.18-5.76-10.08-5.76-17.57V139.5c0-15.7,7.63-23.62,23-23.62a52.1,52.1,0,0,1,27.36,7.2l8.2-14a68.81,68.81,0,0,0-17.56-6.77,85.64,85.64,0,0,0-18-2.3,59.37,59.37,0,0,0-13,1.3,42.39,42.39,0,0,0-10.23,3.31,31.8,31.8,0,0,0-7.49,5.33,24.28,24.28,0,0,0-5.32,6.48,34,34,0,0,0-3.46,7.34,43.9,43.9,0,0,0-1.87,7.78,70.48,70.48,0,0,0-.43,7.92Zm154.19-62.93V168a28,28,0,0,1-2.31,11.66,14.91,14.91,0,0,1-6.77,7.2c-3,1.73-6.76,2.45-11.23,2.45-6.62,0-11.66-1.73-15.12-5.33s-5-8.93-5-16V102.2H1860V168c0,11.66,3.31,20.73,10.08,27.36s16.27,9.93,28.94,9.93,22.32-3.31,29.09-9.93c6.62-6.63,10.08-15.7,10.08-27.36V102.2Zm37,0V203h18.86V166.14h16.7L2015,203h21l-25.06-39.46c6.91-1.72,12.1-5.32,15.55-10.51a33,33,0,0,0,5.33-18.86c0-9.51-2.73-17.28-8.21-23.19s-13.68-8.78-24.48-8.78Zm18.86,48.1V118h23.9c4.61,0,8.21,1.44,10.52,4.32s3.45,6.77,3.45,11.81-1.15,9.07-3.45,12-5.91,4.18-10.52,4.18ZM2051,102.2V203h18.86V102.2Zm38,0V203h37.15a44.54,44.54,0,0,0,19.44-4.18,36.35,36.35,0,0,0,14.4-12.38,32.3,32.3,0,0,0,5.47-18.43V136.76a30.89,30.89,0,0,0-5.62-18.29,35.43,35.43,0,0,0-14.4-12.09,45.9,45.9,0,0,0-19.29-4.18ZM2146.72,168c0,6.05-2,10.65-6,14.11s-8.78,5-14.54,5H2107.7V118h18.43a24.1,24.1,0,0,1,10.22,2.16,17.46,17.46,0,0,1,10.37,16.56Zm60.82-65.81L2171,203h19.58l7.34-20.45H2232l7.49,20.45H2259l-36.58-100.8ZM2228,168.44h-26.35l13.25-38.3Zm44.5-66.24V203h37.15a44.48,44.48,0,0,0,19.44-4.18,36.21,36.21,0,0,0,14.4-12.38A32.31,32.31,0,0,0,2349,168V136.76a31,31,0,0,0-5.62-18.29,35.5,35.5,0,0,0-14.4-12.09,46,46,0,0,0-19.3-4.18ZM2330.24,168c0,6.05-2,10.65-6,14.11s-8.79,5-14.55,5h-18.43V118h18.43a24.11,24.11,0,0,1,10.23,2.16,18.72,18.72,0,0,1,7.49,6.34,18.49,18.49,0,0,1,2.88,10.22Z" transform="translate(-10.31 -1.03)"/><path class="cls-1" d="M1280.42,181.69l2.8-1.09-1.26-3.24-3,1.72Zm-35,5.61,1.46-2.62-.06,0-.06,0ZM1234.34,164l3-.28h0Zm-.14-19.73,3,.18v-.18Zm.58-7.63-3-.34h0Zm1.44-6.77,2.86.88h0Zm2.44-5.62-2.64-1.42h0Zm3.75-4.61-1.88-2.34h0Zm5.47-2.73-.82-2.89-.07,0-.06,0Zm32.54,6.62-1.45,2.62,3,1.67,1.25-3.2Zm6-15.55,2.8,1.09,1-2.48-2.35-1.26Zm-14.4-5.47.78-2.9h-.07Zm-11.23-2.16.2-3h0Zm-19.44,1.29-.73-2.91h0Zm-10.08,4,1.54,2.57,0,0,0,0Zm-7.2,6.48-2.37-1.85,0,0,0,0Zm-4.61,8.2-2.76-1.16v0Zm-2.73,9.94,3,.55v-.09Zm-1.3,10.8,3,.26v-.13Zm-.14,21.46,3-.15h0Zm.86,9.64-3,.38h0Zm2,8.93,2.84-1h0Zm3.31,7.92,2.68-1.34,0-.06,0-.06Zm5,6.77,2-2.2h0Zm6.91,5-1.46,2.62h0Zm9.5,3.31.59-2.94h0Zm17.86.87.19,3h0Zm11.23-2.31-.71-2.91h-.07Zm14.4-5.47,1.41,2.65,2.35-1.26-1-2.48Zm-7.53-18.16c-8.74,5-16.72,7.24-23.86,7.24v6c8.41,0,17.42-2.65,26.83-8Zm-23.86,7.24a17,17,0,0,1-8.19-1.64l-2.91,5.25a22.88,22.88,0,0,0,11.1,2.39Zm-8.31-1.7a13.17,13.17,0,0,1-4.94-4.1l-4.89,3.49a19.29,19.29,0,0,0,7.15,6Zm-4.94-4.1a22,22,0,0,1-3-7.34l-5.82,1.46a28.09,28.09,0,0,0,3.92,9.37Zm-3-7.34a61.53,61.53,0,0,1-1.51-9.48l-6,.55a66.41,66.41,0,0,0,1.66,10.39Zm-1.51-9.48c-.27-3-.27-6.59-.27-11.24h-6c0,4.56,0,8.45.3,11.79Zm-.27-11.24c0-3.2,0-5.83.13-8l-6-.37c-.16,2.42-.15,5.26-.15,8.4Zm.14-8.21c0-2.11.27-4.52.56-7.32l-6-.63a79.69,79.69,0,0,0-.59,7.95Zm.56-7.3a33.59,33.59,0,0,1,1.32-6.22l-5.73-1.76a40.43,40.43,0,0,0-1.56,7.31Zm1.32-6.22a28.76,28.76,0,0,1,2.23-5.08l-5.29-2.84a33.94,33.94,0,0,0-2.67,6.16Zm2.23-5.08a12,12,0,0,1,3-3.68l-3.75-4.69a18.1,18.1,0,0,0-4.51,5.53Zm3-3.68a14.78,14.78,0,0,1,4.55-2.24l-1.9-5.69a20.65,20.65,0,0,0-6.4,3.24Zm4.42-2.2a23.37,23.37,0,0,1,6.38-.89v-6a29.32,29.32,0,0,0-8,1.12Zm6.38-.89c7.11,0,15.11,2.38,23.89,7.25l2.91-5.24c-9.36-5.2-18.36-8-26.8-8Zm28.14,5.72,6-15.55-5.59-2.18-6,15.55Zm4.66-19.29a70.8,70.8,0,0,0-15-5.72l-1.56,5.79a64.83,64.83,0,0,1,13.77,5.23Zm-15.1-5.74A81.74,81.74,0,0,0,1261,97.33l-.4,6a76.55,76.55,0,0,1,10.72,2.08ZM1261,97.33c-2.23-.14-4.24-.29-6-.29v6c1.46,0,3.19.13,5.57.28Zm-6-.29a58.93,58.93,0,0,0-14.41,1.67l1.46,5.82a53,53,0,0,1,12.95-1.49Zm-14.41,1.67a37.16,37.16,0,0,0-11,4.41l3.2,5.07a31.64,31.64,0,0,1,9.21-3.66Zm-10.89,4.37a29,29,0,0,0-8,7.21l4.74,3.69a22.82,22.82,0,0,1,6.37-5.75Zm-8.08,7.28a42,42,0,0,0-5,8.82l5.53,2.33a35.89,35.89,0,0,1,4.26-7.59Zm-5,8.87a48,48,0,0,0-2.92,10.59l5.93.92a42.32,42.32,0,0,1,2.56-9.28Zm-2.9,10.5a81.27,81.27,0,0,0-1.35,11.22l6,.26a74,74,0,0,1,1.25-10.38Zm-1.34,11.09c-.3,3.47-.3,7.35-.3,11.64h6c0-4.36,0-8,.28-11.12Zm-.3,11.64c0,3.72,0,7.25.15,10.23l6-.3c-.14-2.79-.14-6.17-.14-9.93Zm.15,10.22c.15,3.11.44,6.36.88,9.88l6-.75c-.43-3.39-.71-6.48-.85-9.42Zm.88,9.88a48.63,48.63,0,0,0,2.15,9.5l5.69-1.9a42,42,0,0,1-1.88-8.35Zm2.15,9.5a49.1,49.1,0,0,0,3.54,8.43l5.24-2.92a43.4,43.4,0,0,1-3.09-7.41Zm3.47,8.31a26.75,26.75,0,0,0,5.69,7.63l4.08-4.4a20.64,20.64,0,0,1-4.4-5.91Zm5.69,7.63a38.48,38.48,0,0,0,7.49,5.46l2.92-5.24a32.81,32.81,0,0,1-6.33-4.62Zm7.49,5.46a34.75,34.75,0,0,0,10.4,3.64l1.13-5.89a29.23,29.23,0,0,1-8.61-3Zm10.38,3.63a64.49,64.49,0,0,0,12.68,1.07v-6a59.13,59.13,0,0,1-11.51-.95Zm12.68,1.07c1.59,0,3.54,0,6-.15l-.38-6c-2.2.14-4,.14-5.57.14Zm6-.15a68.82,68.82,0,0,0,11.81-2.4l-1.56-5.79a63.06,63.06,0,0,1-10.65,2.2Zm11.74-2.38a64,64,0,0,0,15.1-5.74l-2.82-5.3a58.11,58.11,0,0,1-13.7,5.21Zm16.49-9.48-6-15.55-5.59,2.17,6,15.56Zm11.08-93.95v-3h-3v3Zm0,100.8h-3v3h3Zm18.87,0v3h3v-3Zm0-100.8h3v-3h-3Zm-21.87,0V203h6V102.2Zm3,103.8h18.87v-6h-18.87Zm21.87-3V102.2h-6V203Zm-3-103.8h-18.87v6h18.87Zm19.1,3v-3h-3v3Zm0,100.8h-3v3h3Zm61.92-54.58-1.24-2.73-6.13,2.79,6.17,2.69Zm7.78-7-2.54-1.61h0Zm-5.33-32.4,1.93-2.3h0l0,0ZM1357,141.37h-3v3h3Zm0-23.33v-3h-3v3Zm29.52,22.32-1.11-2.79-.12.05-.11.06ZM1357,187.16h-3v3h3Zm0-29.95v-3h-3v3Zm30.1.86-1,2.82h0Zm4.32,2.74,2.12-2.12-.07-.07-.06-.05Zm2.88,4.75,2.88-.82,0-.1,0-.09Zm-.15,14.54,2.76,1.19,0-.09,0-.09Zm-3.31,4.47-1.54-2.57-.09.05-.09.06Zm-4.61,2-.53-3-.13,0-.13,0Zm-51-84.38V203h6V102.2Zm3,103.8h42.77v-6h-42.77Zm42.77,0c11.35,0,20.45-2.61,26.72-8.37s9.25-14.33,9.25-25h-6c0,9.61-2.61,16.28-7.31,20.59s-12.12,6.79-22.66,6.79Zm36-33.38c0-6.42-1.22-12-3.85-16.61a24.37,24.37,0,0,0-11.77-10.33l-2.4,5.49a18.39,18.39,0,0,1,9,7.81c2,3.47,3.06,8,3.06,13.64Zm-15.58-21.47a21.22,21.22,0,0,0,9.07-8.17l-5.07-3.22a15.23,15.23,0,0,1-6.48,5.93Zm9.07-8.17a24.81,24.81,0,0,0,3.49-13.42h-6a18.84,18.84,0,0,1-2.56,10.2Zm3.49-13.42c0-9.89-3.12-17.59-9.42-22.89l-3.86,4.59c4.64,3.92,7.28,9.76,7.28,18.3Zm-9.46-22.92c-6.13-5-14.2-7.44-23.78-7.44v6c8.57,0,15.18,2.17,20,6.09ZM1380.8,99.2h-42.48v6h42.48ZM1360,141.37V118h-6v23.33ZM1357,121h23.47v-6H1357Zm23.47,0c3.43,0,5.5.85,6.73,2s2.08,3.16,2.08,6.47h6c0-4.32-1.15-8.1-3.9-10.77s-6.56-3.75-10.91-3.75Zm8.81,8.52a10.13,10.13,0,0,1-1.43,5.48l5.11,3.15a16.12,16.12,0,0,0,2.32-8.63Zm-1.43,5.48a5.84,5.84,0,0,1-2.44,2.53l2.22,5.57a11.59,11.59,0,0,0,5.33-4.95Zm-2.67,2.64a7.14,7.14,0,0,1-3.12.69v6a13,13,0,0,0,5.8-1.33Zm-3.12.69H1357v6h25.06ZM1360,187.16V157.21h-6v29.95Zm-3-26.95h24.77v-6H1357Zm24.77,0a12.31,12.31,0,0,1,4.3.68l2.05-5.64a18.36,18.36,0,0,0-6.35-1Zm4.3.68a10.65,10.65,0,0,1,3.35,2.16l4-4.48a16.83,16.83,0,0,0-5.29-3.32Zm3.22,2a9.73,9.73,0,0,1,2.18,3.64l5.65-2a15.67,15.67,0,0,0-3.58-5.86Zm2.12,3.45a23.24,23.24,0,0,1,.89,6.24h6a29,29,0,0,0-1.12-7.88Zm.89,6.24a19.3,19.3,0,0,1-1,6.47l5.65,2a25.15,25.15,0,0,0,1.32-8.49Zm-.91,6.3c-.8,1.87-1.49,2.71-2.09,3.08l3.08,5.14a12.05,12.05,0,0,0,4.53-5.85Zm-2.27,3.19a8.87,8.87,0,0,1-3.42,1.52l1.07,5.91a14.93,14.93,0,0,0,5.79-2.51Zm-3.68,1.58a18.75,18.75,0,0,1-4.82.47v6a24.85,24.85,0,0,0,6.4-.68Zm-4.82.47H1357v6h23.62Zm48.22-82v-3h-3v3Zm0,100.8h-3v3h3Zm68.11,0v3h3v-3Zm0-15.84h3v-3h-3Zm-49.24,0h-3v3h3Zm0-28.22v-3h-3v3Zm43.63,0v3h3v-3Zm0-15.84h3v-3h-3Zm-43.63,0h-3v3h3Zm0-25.06v-3h-3v3Zm48,0v3h3v-3Zm0-15.84h3v-3h-3Zm-69.82,0V203h6V102.2Zm3,103.8H1497v-6h-68.11Zm71.11-3V187.16h-6V203Zm-3-18.84h-49.24v6H1497Zm-46.24,3V158.94h-6v28.22Zm-3-25.22h43.63v-6h-43.63Zm46.63-3V143.1h-6v15.84Zm-3-18.84h-43.63v6h43.63Zm-40.63,3V118h-6V143.1Zm-3-22.06h48v-6h-48Zm51-3V102.2h-6V118Zm-3-18.84h-66.82v6h66.82Zm15.73,3v-3h-3v3Zm0,100.8h-3v3h3Zm18.86,0v3h3v-3Zm0-36.86v-3h-3v3Zm16.71,0,2.54-1.59-.88-1.41H1547ZM1570,203l-2.55,1.59.88,1.41H1570Zm21,0v3h5.46l-2.93-4.61Zm-25-39.46-.73-2.91-4,1,2.23,3.51ZM1581.56,153l2.49,1.67h0Zm-2.88-42,2.2-2h0Zm-48.39,39.32h-3v3h3Zm0-32.26v-3h-3v3Zm34.42,4.32-2.34,1.87h0Zm0,23.76-2.34-1.87h0Zm-56.28-43.92V203h6V102.2Zm3,103.8h18.86v-6h-18.86Zm21.86-3V166.14h-6V203Zm-3-33.86H1547v-6h-16.71Zm14.16-1.41,23,36.86,5.09-3.18-23-36.86ZM1570,206h21v-6h-21Zm23.55-4.61-25-39.45-5.07,3.21,25.06,39.46Zm-26.86-34.94c7.57-1.89,13.42-5.89,17.32-11.75l-5-3.33c-3,4.5-7.52,7.7-13.78,9.26Zm17.32-11.75a36.06,36.06,0,0,0,5.84-20.53h-6a30.08,30.08,0,0,1-4.83,17.2Zm5.84-20.53c0-10.11-2.93-18.66-9-25.23l-4.4,4.08c4.86,5.25,7.41,12.25,7.41,21.15Zm-9-25.25c-6.2-6.53-15.3-9.72-26.65-9.72v6c10.25,0,17.56,2.86,22.3,7.85ZM1554.2,99.2h-42.77v6h42.77Zm-20.91,51.1V118h-6V150.3Zm-3-29.26h23.91v-6h-23.91Zm23.91,0c4,0,6.59,1.22,8.17,3.19l4.68-3.74c-3-3.79-7.62-5.45-12.85-5.45Zm8.17,3.19c1.75,2.19,2.8,5.34,2.8,9.94h6c0-5.49-1.26-10.11-4.12-13.68Zm2.8,9.94c0,4.75-1.06,7.89-2.8,10.08l4.68,3.74c2.86-3.57,4.12-8.21,4.12-13.82Zm-2.8,10.08c-1.54,1.92-4.1,3.05-8.17,3.05v6c5.14,0,9.78-1.47,12.85-5.31Zm-8.17,3.05h-23.91v6h23.91Zm46.69,50.95-2.87-.88-.84,2.76,2.71,1Zm40.75,6.91v-3h-.27Zm5.9-.43-.37-3h0Zm6.19-1.3,1,2.85h0Zm5.62-2.16-1.18-2.76h0Zm5-3.74-2.12-2.12,0,.05,0,0Zm3.89-5.33-2.61-1.49h0Zm2.73-7.34,3,.58h0Zm-.14-17.86,2.89-.8v0Zm-2.45-6.48,2.73-1.26-.06-.13L1671,159Zm-4.32-5.18,2-2.21,0,0,0,0Zm-5-4,1.72-2.45-.08-.06-.09-.06Zm-6.33-3.16-1.17,2.76h0Zm-6.34-2.74,1.11-2.79h0l0,0Zm-6.91-2.45,1.07-2.8-.11,0-.12,0Zm-5.62-1.87,1.22-2.74-.13-.06-.14-.05Zm-4.61-2,1.35-2.68h0Zm-4-2.73,2.12-2.12h0Zm-2.45-3.31,2.69-1.35h0Zm37.73-9.65-1.56,2.56,2.52,1.53L1663,125Zm8.79-13.83,2.53,1.61,1.53-2.41-2.33-1.65Zm-15.7-7.34.76-2.9h0Zm-32.4.14-.87-2.87h0Zm-11.09,6.48-2.18-2.06,0,0,0,0Zm-5.47,8.93,2.82,1h0Zm.29,20.31,2.76-1.19,0,0v0Zm4.75,7.34,2.2-2,0,0,0,0Zm15.26,9.5,1.06-2.81h0Zm8.93,3,1.12-2.79-.1,0-.1,0Zm7.2,2.88-1.26,2.72h0Zm6,3.17,1.74-2.45-.09-.07-.11-.06Zm4.61,4.89-2.64,1.42h0Zm.14,13.83,2.69,1.34,0-.08,0-.08Zm-4.17,4.46,1.25,2.72,0,0,0,0Zm-5.48,1.87.5,3h0Zm-19-.86.58-2.94h0Zm-17.72-5,.94-2.85-2.91-1-.9,2.93Zm-5.6,18q20.61,7.23,36,7.22v-6c-9.35,0-20.66-2.2-34-6.88Zm36,7.22c2.26,0,4.28,0,6-.15l-.54-6c-1.42.13-3.14.13-5.49.13Zm5.76-.14a51.93,51.93,0,0,0,6.27-.46l-.74-5.95a46.18,46.18,0,0,1-5.53.41Zm6.27-.46a36.06,36.06,0,0,0,6.77-1.42l-1.89-5.69a30.42,30.42,0,0,1-5.62,1.16Zm6.77-1.42q2.73-.92,5.85-2.25l-2.36-5.52q-2.94,1.26-5.38,2.08Zm5.85-2.25a17.45,17.45,0,0,0,6.08-4.48l-4.44-4a11.3,11.3,0,0,1-4,3Zm6-4.38a28.25,28.25,0,0,0,4.37-6l-5.21-3a22.55,22.55,0,0,1-3.4,4.7Zm4.37-6a27.45,27.45,0,0,0,3.08-8.25l-5.89-1.17a21.41,21.41,0,0,1-2.4,6.44Zm3.08-8.25a53.41,53.41,0,0,0,1.06-10.38h-6a46.65,46.65,0,0,1-1,9.21Zm1.06-10.38a32.41,32.41,0,0,0-1.26-8.86l-5.78,1.6a26.54,26.54,0,0,1,1,7.26Zm-1.27-8.91a51.06,51.06,0,0,0-2.6-6.89l-5.45,2.52a44.05,44.05,0,0,1,2.29,6.07ZM1671,159a25.82,25.82,0,0,0-4.87-5.88l-4.07,4.41a19.89,19.89,0,0,1,3.76,4.49Zm-5-5.95a66.39,66.39,0,0,0-5.27-4.21l-3.44,4.91c1.31.92,2.8,2.13,4.81,3.85Zm-5.44-4.33a55.22,55.22,0,0,0-6.72-3.36l-2.33,5.53a47.72,47.72,0,0,1,6,3Zm-6.72-3.36c-2.52-1.06-5-2.19-6.39-2.76l-2.22,5.57c1.46.59,3.33,1.48,6.28,2.72Zm-6.47-2.79c-1.83-.66-3.8-1.26-6.87-2.43l-2.14,5.6c3,1.14,5.61,2,6.95,2.47Zm-7.1-2.51a47.8,47.8,0,0,1-5.24-1.73l-2.44,5.48a54.47,54.47,0,0,0,6,2Zm-5.51-1.84a33.55,33.55,0,0,1-4.21-1.85l-2.69,5.37a42.08,42.08,0,0,0,5,2.18Zm-4.21-1.85a13.43,13.43,0,0,1-3.26-2.17l-4.24,4.24a19.1,19.1,0,0,0,4.81,3.3Zm-3.26-2.17a9.18,9.18,0,0,1-1.88-2.54l-5.37,2.69a15.37,15.37,0,0,0,3,4.09Zm-1.88-2.54a7.44,7.44,0,0,1-.69-3.41h-6a13.42,13.42,0,0,0,1.32,6.1Zm-.69-3.41c0-3.37,1.07-5.48,2.92-6.87,2-1.51,5.38-2.51,10.64-2.51v-6c-5.84,0-10.74,1.08-14.24,3.72-3.67,2.75-5.32,6.83-5.32,11.66Zm13.56-9.38c5.87,0,12.81,2.31,20.61,7.05l3.12-5.13c-8.32-5-16.36-7.92-23.73-7.92ZM1663,125l8.79-13.83-5.07-3.22L1658,121.76Zm8-17.89a51.79,51.79,0,0,0-16.67-7.79l-1.52,5.8a46.07,46.07,0,0,1,14.73,6.89Zm-16.68-7.8a65,65,0,0,0-16-2.25v6a58.42,58.42,0,0,1,14.51,2.07Zm-16-2.25a62.67,62.67,0,0,0-18,2.43l1.74,5.74a56.61,56.61,0,0,1,16.27-2.17Zm-18.06,2.45a28.69,28.69,0,0,0-12.35,7.27l4.36,4.13c2.16-2.29,5.29-4.22,9.83-5.69Zm-12.4,7.33a29.6,29.6,0,0,0-6.06,9.91l5.64,2a23.75,23.75,0,0,1,4.88-8Zm-6.06,9.91a33.93,33.93,0,0,0-1.76,11.53h6a28,28,0,0,1,1.4-9.48Zm-1.76,11.53a26.8,26.8,0,0,0,2.13,11l5.47-2.47a20.76,20.76,0,0,1-1.6-8.56Zm2.11,11a26.09,26.09,0,0,0,5.39,8.28l4.24-4.24a20.26,20.26,0,0,1-4.11-6.41Zm5.31,8.19a33.29,33.29,0,0,0,7.91,6l3-5.21a27.64,27.64,0,0,1-6.49-4.91Zm7.91,6a62.45,62.45,0,0,0,8.5,4.23l2.11-5.62a56.58,56.58,0,0,1-7.63-3.82Zm8.5,4.23c2.38.89,5.46,1.92,9.07,3.07l1.83-5.71c-3.6-1.15-6.56-2.14-8.79-3Zm8.87,3c3.06,1.23,5.27,2,7,2.82l2.52-5.45c-2-.9-4.64-1.86-7.34-2.94Zm7,2.82a59.11,59.11,0,0,1,5.77,3l3.08-5.15a68.12,68.12,0,0,0-6.33-3.32Zm5.57,2.89a11.91,11.91,0,0,1,3.71,3.87l5.28-2.84a17.81,17.81,0,0,0-5.51-5.92Zm3.71,3.87a9.84,9.84,0,0,1,1.22,4.77h6a15.78,15.78,0,0,0-1.94-7.61Zm1.22,4.77a15.86,15.86,0,0,1-1.2,6.45l5.52,2.37a22,22,0,0,0,1.68-8.82Zm-1.12,6.29a6.73,6.73,0,0,1-2.84,3.13l2.69,5.36a12.72,12.72,0,0,0,5.52-5.8Zm-2.75,3.09a19.48,19.48,0,0,1-4.71,1.63l1,5.92a24.89,24.89,0,0,0,6.23-2.11Zm-4.71,1.63a37,37,0,0,1-5.84.39v6a43.24,43.24,0,0,0,6.83-.47Zm-5.84.39a61.78,61.78,0,0,1-12.09-1.23l-1.17,5.88a67.13,67.13,0,0,0,13.26,1.35Zm-12.09-1.23a167.92,167.92,0,0,1-17.36-4.95l-1.87,5.7a171.42,171.42,0,0,0,18.06,5.13Zm-21.17-3-4.6,15.12,5.74,1.75,4.6-15.12Zm83.47-80v-3h-3v3Zm0,100.8h-3v3h3Zm68.11,0v3h3v-3Zm0-15.84h3v-3h-3Zm-49.25,0h-3v3h3Zm0-28.22v-3h-3v3Zm43.63,0v3h3v-3Zm0-15.84h3v-3h-3Zm-43.63,0h-3v3h3Zm0-25.06v-3h-3v3Zm48,0v3h3v-3Zm0-15.84h3v-3h-3Zm-69.81,0V203h6V102.2Zm3,103.8h68.11v-6h-68.11Zm71.11-3V187.16h-6V203Zm-3-18.84H1705v6h49.25Zm-46.25,3V158.94h-6v28.22Zm-3-25.22h43.63v-6H1705Zm46.63-3V143.1h-6v15.84Zm-3-18.84H1705v6h43.63Zm-40.63,3V118h-6V143.1ZM1705,121h48v-6h-48Zm51-3V102.2h-6V118Zm-3-18.84h-66.81v6h66.81Zm17,86.66,2.66-1.39h0Zm14,14,1.48-2.6,0,0h0Zm29.08,4.75.24,3h0Zm14.69-2.3-.56-2.95h0Zm13.25-4.9,1.78,2.42,1.22-.9v-1.52Zm0-52.7h3v-3h-3Zm-35.14,0v-3h-3v3Zm0,15.84h-3v3h3Zm16.42,0h3v-3h-3Zm0,27.07.7,2.92,2.3-.56v-2.36Zm-32.54-4.89,2.26-2,0,0,0,0Zm44.64-59.62-1.55,2.57,2.6,1.56,1.53-2.61Zm8.2-14,2.59,1.52,1.56-2.65-2.69-1.49Zm-17.56-6.77.69-2.91h-.06Zm-31-1,.62,2.93h0ZM1776.26,110l2,2.25,0,0,0,0Zm-5.32,6.48,2.54,1.59,0-.06,0-.06Zm-3.46,7.34-2.85-1v.05Zm-1.87,7.78-3-.36h0Zm-3.43,33.55c0,8.32,1.66,15.74,5.1,22.15l5.29-2.83a40.33,40.33,0,0,1-4.39-19.32Zm5.09,22.13a36.55,36.55,0,0,0,15.19,15.2l2.88-5.26a30.4,30.4,0,0,1-12.75-12.73Zm15.14,15.18c6.61,3.77,14.35,5.43,22.8,5.43v-6c-7.68,0-14.34-1.51-19.83-4.64Zm22.8,5.43c1.61,0,4.29,0,8-.3l-.47-6c-3.48.28-6,.28-7.54.28Zm8-.3a124.86,124.86,0,0,0,15.07-2.35l-1.23-5.88a117.87,117.87,0,0,1-14.31,2.25Zm15-2.34c6.25-1.19,11.22-3,14.47-5.43l-3.56-4.83c-2.22,1.63-6.18,3.25-12,4.36Zm15.69-7.85v-52.7h-6v52.7Zm-3-55.7h-35.14v6h35.14Zm-38.14,3v15.84h6V144.68Zm3,18.84h16.42v-6h-16.42Zm13.42-3v27.07h6V160.52Zm2.3,24.16c-3.83.92-9.16,1.35-16.29,1.35v6c7.27,0,13.17-.43,17.69-1.52ZM1805.21,186c-6,0-10.24-1.78-13.29-5.3l-4.53,3.93c4.44,5.12,10.53,7.37,17.82,7.37Zm-13.36-5.38c-3.21-3.44-4.95-8.51-4.95-15.52h-6c0,8,2,14.7,6.56,19.61Zm-4.95-15.52V139.5h-6v25.63Zm0-25.63c0-7.41,1.8-12.43,4.89-15.61s7.93-5,15.15-5v-6c-8.19,0-14.86,2.11-19.45,6.83s-6.59,11.5-6.59,19.79Zm20-20.62a49,49,0,0,1,25.81,6.77l3.09-5.14a55,55,0,0,0-28.9-7.63Zm29.94,5.72,8.21-14-5.17-3-8.21,14Zm7.08-18.11a71.44,71.44,0,0,0-18.33-7.06l-1.39,5.83a66,66,0,0,1,16.81,6.47Zm-18.39-7.08A88.57,88.57,0,0,0,1806.94,97v6a82.54,82.54,0,0,1,17.36,2.24ZM1806.94,97a62.75,62.75,0,0,0-13.61,1.37l1.3,5.85a57.4,57.4,0,0,1,12.31-1.22Zm-13.59,1.36a45.92,45.92,0,0,0-10.94,3.56l2.68,5.37a40.13,40.13,0,0,1,9.51-3.06ZM1782.41,102a35.35,35.35,0,0,0-8.19,5.82l4.09,4.39a29,29,0,0,1,6.78-4.84Zm-8.12,5.76a27.56,27.56,0,0,0-6,7.26l5.23,3a21.6,21.6,0,0,1,4.69-5.7Zm-5.9,7.15a37.56,37.56,0,0,0-3.76,8l5.7,1.9a31.32,31.32,0,0,1,3.15-6.7Zm-3.77,8a46.1,46.1,0,0,0-2,8.32l6,.71a40.75,40.75,0,0,1,1.75-7.23Zm-2,8.34a74.31,74.31,0,0,0-.45,8.26h6a67,67,0,0,1,.41-7.59Zm-.45,8.26v25.63h6V139.5Zm157.19-37.3v-3h-3v3Zm-2.31,77.47,2.73,1.24h0Zm-6.77,7.2-1.39-2.66-.05,0,0,0ZM1883.94,184l2.17-2.08Zm-5-81.79h3v-3h-3Zm-18.86,0v-3h-3v3Zm10.08,93.17,2.12-2.12v0h0Zm58,0,2.1,2.14h0Zm10.08-93.17h3v-3h-3Zm-21.86,0V168h6V102.2Zm0,65.81a25.06,25.06,0,0,1-2,10.42l5.46,2.48a31,31,0,0,0,2.58-12.9Zm-2,10.42a11.93,11.93,0,0,1-5.43,5.78l2.79,5.32a18,18,0,0,0,8.1-8.62Zm-5.52,5.84c-2.41,1.37-5.57,2-9.75,2v6c4.76,0,9.08-.76,12.72-2.84Zm-9.75,2c-6.11,0-10.25-1.59-13-4.41l-4.33,4.16c4.2,4.38,10.15,6.25,17.28,6.25Zm-13-4.41c-2.71-2.81-4.21-7.24-4.21-13.9h-6c0,7.44,1.67,13.67,5.88,18.06ZM1881.9,168V102.2h-6V168Zm-3-68.81H1860v6h18.86Zm-21.86,3V168h6V102.2Zm0,65.81c0,12.26,3.5,22.18,11,29.5l4.2-4.29c-6.06-5.92-9.18-14.15-9.18-25.21Zm11,29.48c7.36,7.36,17.88,10.81,31.06,10.81v-6c-12.16,0-20.93-3.17-26.82-9.05Zm31.06,10.81c13.19,0,23.69-3.45,31.19-10.79l-4.2-4.29c-6,5.92-14.83,9.08-27,9.08Zm31.21-10.81c7.3-7.3,11-17.19,11-29.48h-6c0,11-3.25,19.28-9.2,25.24Zm11-29.48V102.2h-6V168Zm-3-68.81h-18.86v6h18.86Zm18.14,3v-3h-3v3Zm0,100.8h-3v3h3Zm18.86,0v3h3v-3Zm0-36.86v-3h-3v3Zm16.7,0,2.55-1.59-.88-1.41h-1.67ZM2015,203l-2.54,1.59.88,1.41H2015Zm21,0v3h5.46l-2.93-4.61Zm-25.06-39.46-.72-2.91-4,1,2.23,3.51ZM2026.49,153l2.5,1.67h0Zm-2.88-42,2.21-2h0Zm-48.38,39.32h-3v3h3Zm0-32.26v-3h-3v3Zm34.42,4.32-2.35,1.87h0Zm0,23.76-2.35-1.87h0Zm-56.28-43.92V203h6V102.2Zm3,103.8h18.86v-6h-18.86Zm21.86-3V166.14h-6V203Zm-3-33.86h16.7v-6h-16.7Zm14.16-1.41,23,36.86,5.09-3.18-23-36.86ZM2015,206h21v-6h-21Zm23.56-4.61-25-39.45-5.07,3.21,25.06,39.46Zm-26.86-34.94c7.57-1.89,13.41-5.89,17.32-11.75l-5-3.33c-3,4.5-7.53,7.7-13.78,9.26ZM2029,154.7a36.06,36.06,0,0,0,5.83-20.53h-6a30.16,30.16,0,0,1-4.82,17.2Zm5.83-20.53c0-10.11-2.92-18.66-9-25.23l-4.41,4.08c4.87,5.25,7.41,12.25,7.41,21.15Zm-9-25.25c-6.2-6.53-15.31-9.72-26.66-9.72v6c10.26,0,17.57,2.86,22.31,7.85Zm-26.66-9.72h-42.76v6h42.76Zm-20.9,51.1V118h-6V150.3Zm-3-29.26h23.9v-6h-23.9Zm23.9,0c4,0,6.6,1.22,8.17,3.19l4.69-3.74c-3-3.79-7.62-5.45-12.86-5.45Zm8.17,3.19c1.76,2.19,2.8,5.34,2.8,9.94h6c0-5.49-1.25-10.11-4.11-13.68Zm2.8,9.94c0,4.75-1,7.89-2.8,10.08L2012,148c2.86-3.57,4.11-8.21,4.11-13.82Zm-2.8,10.08c-1.53,1.92-4.09,3.05-8.17,3.05v6c5.15,0,9.79-1.47,12.86-5.31Zm-8.17,3.05h-23.9v6h23.9ZM2051,102.2v-3h-3v3Zm0,100.8h-3v3h3Zm18.86,0v3h3v-3Zm0-100.8h3v-3h-3Zm-21.86,0V203h6V102.2Zm3,103.8h18.86v-6H2051Zm21.86-3V102.2h-6V203Zm-3-103.8H2051v6h18.86Zm19.11,3v-3h-3v3Zm0,100.8h-3v3h3Zm56.59-4.18,1.29,2.71h0Zm14.4-12.38,2.47,1.69h0Zm-.15-68-2.45,1.73h0Zm-14.4-12.09,1.27-2.73h0Zm-37.72,80.78h-3v3h3Zm0-69.12v-3h-3v3Zm28.65,2.16,1.29-2.71h0Zm7.49,6.34,2.52-1.64,0,0,0,0ZM2086,102.2V203h6V102.2Zm3,103.8h37.15v-6H2089Zm37.15,0a47.46,47.46,0,0,0,20.73-4.47l-2.58-5.42a41.49,41.49,0,0,1-18.15,3.89Zm20.75-4.48a39.16,39.16,0,0,0,15.56-13.39l-5-3.38a33.28,33.28,0,0,1-13.24,11.38Zm15.57-13.4a35.24,35.24,0,0,0,6-20.11h-6a29.3,29.3,0,0,1-5,16.75Zm6-20.11V136.76h-6V168Zm0-31.25a33.88,33.88,0,0,0-6.16-20l-4.91,3.45a27.9,27.9,0,0,1,5.07,16.56Zm-6.16-20a38.65,38.65,0,0,0-15.59-13.1l-2.53,5.45a32.61,32.61,0,0,1,13.21,11.1Zm-15.62-13.11a49.08,49.08,0,0,0-20.53-4.44v6a43,43,0,0,1,18.06,3.91Zm-20.53-4.44H2089v6h37.15ZM2143.72,168c0,5.28-1.71,9-5,11.83l3.9,4.56c4.78-4.1,7.1-9.58,7.1-16.39Zm-5,11.83c-3.41,2.93-7.44,4.32-12.59,4.32v6a24.32,24.32,0,0,0,16.49-5.76Zm-12.59,4.32H2107.7v6h18.43Zm-15.43,3V118h-6v69.12Zm-3-66.12h18.43v-6H2107.7Zm18.43,0a21,21,0,0,1,9,1.89l2.48-5.46a27.11,27.11,0,0,0-11.46-2.43Zm8.93,1.87a15.57,15.57,0,0,1,6.32,5.35l4.92-3.44a21.65,21.65,0,0,0-8.66-7.33Zm6.26,5.26a15.43,15.43,0,0,1,2.4,8.59h6a21.53,21.53,0,0,0-3.36-11.86Zm2.4,8.59V168h6V136.76Zm63.82-34.56v-3h-2.1l-.72,2ZM2171,203l-2.82-1-1.46,4H2171Zm19.58,0v3h2.11l.71-2Zm7.34-20.45v-3h-2.11l-.71,2Zm34.13,0,2.82-1-.72-2H2232Zm7.49,20.45-2.82,1,.72,2h2.1Zm19.44,0v3h4.28l-1.46-4Zm-36.58-100.8,2.82-1-.71-2h-2.11Zm5.62,66.24v3h4.2l-1.36-4Zm-26.35,0-2.84-1-1.37,4h4.21Zm13.25-38.3,2.83-1-2.82-8.25-2.85,8.24Zm-10.17-29L2168.15,202l5.64,2,36.57-100.8ZM2171,206h19.58v-6H2171Zm22.4-2,7.35-20.44-5.65-2L2187.73,202Zm4.52-18.46H2232v-6h-34.13Zm31.32-2,7.48,20.45,5.64-2.06-7.49-20.45Zm10.3,22.42H2259v-6h-19.44Zm22.26-4-36.58-100.8-5.64,2L2256.13,204ZM2222.37,99.2h-14.83v6h14.83Zm5.62,66.24h-26.35v6H2228Zm-23.52,4,13.25-38.3-5.67-2-13.25,38.31Zm7.58-38.31,13.1,38.3,5.68-1.94-13.11-38.31Zm60.44-28.91v-3h-3v3Zm0,100.8h-3v3h3Zm56.59-4.18,1.29,2.71h0Zm14.4-12.38,2.48,1.69h0Zm-.14-68-2.45,1.73h0Zm-14.4-12.09,1.26-2.73h0Zm-37.73,80.78h-3v3h3Zm0-69.12v-3h-3v3Zm28.66,2.16,1.29-2.71h0Zm7.49,6.34,2.51-1.64,0,0,0,0Zm-57.87-24.34V203h6V102.2Zm3,103.8h37.15v-6h-37.15Zm37.15,0a47.46,47.46,0,0,0,20.73-4.47l-2.58-5.42a41.42,41.42,0,0,1-18.15,3.89Zm20.76-4.48A39.23,39.23,0,0,0,2346,188.13l-4.95-3.38a33.28,33.28,0,0,1-13.24,11.38Zm15.57-13.4a35.31,35.31,0,0,0,6-20.11h-6a29.3,29.3,0,0,1-5,16.75Zm6-20.11V136.76h-6V168Zm0-31.25a33.89,33.89,0,0,0-6.17-20l-4.9,3.45a27.9,27.9,0,0,1,5.07,16.56Zm-6.17-20a38.52,38.52,0,0,0-15.59-13.1l-2.52,5.45a32.61,32.61,0,0,1,13.21,11.1Zm-15.61-13.11a49.13,49.13,0,0,0-20.54-4.44v6a42.92,42.92,0,0,1,18.06,3.91Zm-20.54-4.44h-37.15v6h37.15Zm17.6,68.81c0,5.28-1.72,9-5,11.83l3.9,4.56c4.78-4.1,7.1-9.58,7.1-16.39Zm-5,11.83c-3.42,2.93-7.45,4.32-12.6,4.32v6a24.33,24.33,0,0,0,16.5-5.76Zm-12.6,4.32h-18.43v6h18.43Zm-15.43,3V118h-6v69.12Zm-3-66.12h18.43v-6h-18.43Zm18.43,0a21.11,21.11,0,0,1,9,1.89l2.48-5.46a27.16,27.16,0,0,0-11.47-2.43Zm8.94,1.87a15.57,15.57,0,0,1,6.32,5.35l4.91-3.44a21.63,21.63,0,0,0-8.65-7.33Zm6.26,5.26a15.51,15.51,0,0,1,2.4,8.59h6a21.54,21.54,0,0,0-3.37-11.86Zm2.4,8.59V168h6V136.76Z" transform="translate(-10.31 -1.03)"/><path class="cls-2" d="M41.4,42.26c-.4,3.6-3.5,11.83-5,15.5,24.4-14.4,57-2,69,4-12.5-28-34-33.54-46.5-34C45.4,27.26,41.9,37.76,41.4,42.26Z" transform="translate(-10.31 -1.03)"/><path class="cls-3" d="M94.26,17.68c-2.44,2.68-9.79,7.51-13.16,9.59,28.2,2.71,47.27,31.92,53.44,43.84,6.37-30-7.76-47.13-17.6-54.86C106.32,7.91,97.32,14.34,94.26,17.68Z" transform="translate(-10.31 -1.03)"/><path class="cls-4" d="M151.54,28.72c-3.54.8-12.33.54-16.29.32,21.56,18.39,20.44,53.25,18.67,66.55,22.41-20.93,20.65-43.06,17-55C167,27.63,156,27.73,151.54,28.72Z" transform="translate(-10.31 -1.03)"/><path class="cls-5" d="M192.29,71.53c-3.25-1.59-10-7.28-12.91-9.92,5.35,27.82-17.3,54.34-27,63.63,30.57-2.35,43-20.74,47.66-32.35C205.07,80.34,196.36,73.52,192.29,71.53Z" transform="translate(-10.31 -1.03)"/><path class="cls-6" d="M198.63,128c-1.79-3.14-4.12-11.63-5.06-15.47-11.28,26-44.94,35.12-58.17,37.32C162,165.12,182.62,157,193,150,204.21,142.46,200.87,131.91,198.63,128Z" transform="translate(-10.31 -1.03)"/><path class="cls-7" d="M169.48,178.12c.42-3.6,3.56-11.82,5.08-15.48-24.48,14.27-57,1.69-69-4.38,12.35,28.07,33.82,33.73,46.32,34.26C165.39,193.09,169,182.61,169.48,178.12Z" transform="translate(-10.31 -1.03)"/><path class="cls-8" d="M117.19,203.37c2.44-2.68,9.78-7.52,13.15-9.61C102.13,191.09,83,161.92,76.83,150c-6.32,30,7.83,47.11,17.68,54.83C105.15,213.17,114.14,206.72,117.19,203.37Z" transform="translate(-10.31 -1.03)"/><path class="cls-9" d="M60.56,192c3.53-.8,12.33-.55,16.28-.32-21.56-18.38-20.45-53.24-18.68-66.54-22.41,20.93-20.64,43.06-17,55C45.08,193.09,56.14,193,60.56,192Z" transform="translate(-10.31 -1.03)"/><path class="cls-10" d="M20.75,149.62c3.3,1.49,10.17,7,13.2,9.54C27.78,131.5,49.63,104.32,59,94.76c-30.49,3.25-42.39,22-46.69,33.74C7.71,141.18,16.62,147.75,20.75,149.62Z" transform="translate(-10.31 -1.03)"/><path class="cls-11" d="M12.66,93.2c1.82,3.13,4.22,11.59,5.2,15.43,11-26.09,44.62-35.52,57.84-37.84C49,55.73,28.42,64.07,18.09,71.13,7,78.76,10.38,89.28,12.66,93.2Z" transform="translate(-10.31 -1.03)"/><path class="cls-12" d="M1054,9V212" transform="translate(-10.31 -1.03)"/></svg>