<svg id="Capa_1" data-name="Capa 1" xmlns="http://www.w3.org/2000/svg" viewBox="0 0 114 107.98"><defs><style>.cls-1{fill:#303030;}</style></defs><path class="cls-1" d="M96.64,75.59a7,7,0,0,0,7-7V17.8a7,7,0,0,0-7-7H17.36a7,7,0,0,0-7,7V68.59a7,7,0,0,0,7,7Zm7-75.59A10.15,10.15,0,0,1,111,3.16a11,11,0,0,1,3,7.64V75.59a11,11,0,0,1-3,7.63,10.12,10.12,0,0,1-7.32,3.17H72.76a5.4,5.4,0,1,0,0,10.79H98.24a5.4,5.4,0,1,1,0,10.8H15.76a5.4,5.4,0,0,1,0-10.8H41.24a5.4,5.4,0,1,0,0-10.79H10.36A10.13,10.13,0,0,1,3,83.22a11,11,0,0,1-3-7.63V10.8A10.55,10.55,0,0,1,10.36,0Z"/><path class="cls-1" d="M54.4,35.48a9.18,9.18,0,1,1-18.35,0,9.18,9.18,0,1,1,18.35,0ZM52.52,50.92a2.73,2.73,0,0,1,1.88,2.67v7.66a3,3,0,0,1-3,3H32.17a3,3,0,0,1-3-3V59.46c0-5.3,7.18-9.59,16.06-9.59A24.92,24.92,0,0,1,52.52,50.92ZM84.21,61.25a3,3,0,0,1-3,3H62a3,3,0,0,1-3-3V26.49a3,3,0,0,1,3-3H81.21a3,3,0,0,1,3,3ZM65.86,43.87a6.17,6.17,0,0,1,1.68-4.24,5.57,5.57,0,0,1,8.11,0,6.19,6.19,0,0,1,0,8.48,5.55,5.55,0,0,1-8.11,0A6.16,6.16,0,0,1,65.86,43.87Zm13.76-7.79c0-1.65-1.48-2.94-2.77-4a4.69,4.69,0,0,1-.47-.42,5.08,5.08,0,0,1-.47-.57C75,29.75,73.69,28.29,72,28.29h-.88c-1.66,0-2.93,1.46-3.87,2.82a4.71,4.71,0,0,1-.94,1c-1.3,1-2.78,2.32-2.78,4V51.66c0,1.66,1.48,3,2.78,4a3.72,3.72,0,0,1,.46.43,5.08,5.08,0,0,1,.47.57c1,1.36,2.22,2.82,3.88,2.82H72c1.65,0,2.93-1.46,3.88-2.82a4.61,4.61,0,0,1,.93-1c1.29-1,2.77-2.33,2.77-4Z"/></svg>