<svg id="Capa_1" data-name="Capa 1" xmlns="http://www.w3.org/2000/svg" viewBox="0 0 98.72 117.66"><defs><style>.cls-1{fill:none;stroke:#9e1724;stroke-linecap:round;stroke-width:4px;}</style></defs><path class="cls-1" d="M2.47,15.64v89.42c0,7.21,4.26,10,6.44,10.59H76.72a.5.5,0,0,0,.5-.5v-99a.5.5,0,0,0-.5-.5Zm0,0C1.38,11.09,1.49,2,10.59,2H96.23a.49.49,0,0,1,.49.5V39.67a.52.52,0,0,1-.16.37l-7.81,7.28a.48.48,0,0,0-.16.36v66a.5.5,0,0,1-.5.5h-6M44.72,23.22h26M46.34,32.31h9.75M44.72,94.45H48m6.5,0h3.25m6.5,0h3.25" transform="translate(0)"/></svg>