<svg id="Capa_1" data-name="Capa 1" xmlns="http://www.w3.org/2000/svg" viewBox="0 0 140.6 125.93"><defs><style>.cls-1{fill:none;stroke:#9e1724;stroke-linecap:round;stroke-linejoin:round;stroke-width:4px;}</style></defs><path class="cls-1" d="M41,77.93V38.05a.49.49,0,0,0-.49-.5H16.18C4.84,37.55,2,44.66,2,48.21V92.64c0,10,7.09,12.45,10.64,12.45H22.77a.5.5,0,0,1,.5.5v17.84a.5.5,0,0,0,.86.35l18.5-18.55a.5.5,0,0,1,.35-.14H78.24c9.92,0,12.41-8.3,12.41-12.45V78.93a.5.5,0,0,0-.5-.5H41.5A.51.51,0,0,1,41,77.93Z"/><path class="cls-1" d="M97.53,71.32H50.37a.49.49,0,0,1-.5-.49V14.44C49.87,4.49,58.14,2,62.28,2h60.28c14.18,0,16.54,9.48,15.95,14.22V58.88c0,8.49-7,11.82-10.59,12.43H117.74a.5.5,0,0,0-.5.5V89.66a.5.5,0,0,1-.85.35L97.88,71.46A.5.5,0,0,0,97.53,71.32Z"/></svg>