<svg id="Capa_1" data-name="Capa 1" xmlns="http://www.w3.org/2000/svg" viewBox="0 0 117.5 114.67"><defs><style>.cls-1{fill:none;stroke:#9e1724;stroke-linecap:round;stroke-linejoin:round;stroke-width:4px;}</style></defs><path class="cls-1" d="M46,2H6.55C5,2,2,3.3,2,8.51v99.28c0,1.63.91,4.88,4.55,4.88H70.2a4.52,4.52,0,0,0,4.54-4.88V89.89m0-57V49.2M17.16,76.87H39.89M17.16,65.47H61.1M17.16,54.08H61.1M17.16,42.69H61.1M17.16,24.79H39.89m4.54,63.47L51.56,99a.5.5,0,0,0,.85,0L64.14,78.49M55,6.88c-1.51-2.17-4.54-5.21-4.54,0V27.54a.5.5,0,0,0,.5.5H70.2c1.51,0,3.64-1,0-4.88ZM91.82,87.06l15.9,17.08a.5.5,0,0,0,.73,0l6.91-7.42a.5.5,0,0,0,0-.66L100.82,78.87a.51.51,0,0,1,.05-.7L109,70.9a.5.5,0,0,0-.15-.84L69.71,54.49a.5.5,0,0,0-.65.63L83.53,95.54a.5.5,0,0,0,.87.14l6.65-8.58A.51.51,0,0,1,91.82,87.06Z"/></svg>