<svg id="Capa_1" data-name="Capa 1" xmlns="http://www.w3.org/2000/svg" viewBox="0 0 96 118.42"><defs><style>.cls-1{fill:#303030;}.cls-2{fill:#e9eaee;}.cls-3{fill:#4d4d4d;}.cls-4{fill:#767676;}</style></defs><path class="cls-1" d="M32.88,113.53a10.72,10.72,0,0,1-5.28,1.59,4.15,4.15,0,0,1-2-.42,3.38,3.38,0,0,1-1.26-1,5.24,5.24,0,0,1-.72-1.74,13.44,13.44,0,0,1-.33-2.07c-.06-.66-.06-1.44-.06-2.4,0-.66,0-1.23,0-1.71s.06-1,.12-1.59a7.68,7.68,0,0,1,.3-1.41,6.59,6.59,0,0,1,.51-1.17,3.13,3.13,0,0,1,.78-1A3.69,3.69,0,0,1,26.1,100a5.48,5.48,0,0,1,1.5-.21,11,11,0,0,1,5.28,1.59l1.26-3.24a14.17,14.17,0,0,0-3-1.14,16.26,16.26,0,0,0-2.34-.45c-.48,0-.87-.06-1.2-.06a11.62,11.62,0,0,0-2.85.33,7.13,7.13,0,0,0-2.1.84A5.39,5.39,0,0,0,21.15,99a8.19,8.19,0,0,0-1,1.71,9.41,9.41,0,0,0-.57,2.07,16.31,16.31,0,0,0-.27,2.25c-.06.69-.06,1.47-.06,2.37s0,1.5,0,2.1.09,1.29.18,2a9.5,9.5,0,0,0,.42,1.86,9.65,9.65,0,0,0,.69,1.65,5,5,0,0,0,1.05,1.41,7.41,7.41,0,0,0,1.44,1,6.66,6.66,0,0,0,2,.69,13,13,0,0,0,2.52.21c.33,0,.72,0,1.2,0a13.75,13.75,0,0,0,2.34-.48,12.71,12.71,0,0,0,3-1.14Zm3.58-3.45a9,9,0,0,0,1,4.32,7,7,0,0,0,2.91,2.91,8.84,8.84,0,0,0,4.44,1c.33,0,.87,0,1.62-.06a25.37,25.37,0,0,0,3.06-.48,7,7,0,0,0,2.76-1v-11H44.92v3.3h3.42v5.64a15.82,15.82,0,0,1-3.54.3,4,4,0,0,1-3.24-1.32,5.18,5.18,0,0,1-1.2-3.66v-5.34c0-3.27,1.59-4.92,4.8-4.92a10.85,10.85,0,0,1,5.7,1.5l1.71-2.91A14.3,14.3,0,0,0,48.91,97a17.83,17.83,0,0,0-3.75-.48,12.47,12.47,0,0,0-2.7.27,8.88,8.88,0,0,0-2.13.69,6.65,6.65,0,0,0-1.56,1.11,5.11,5.11,0,0,0-1.11,1.35,7.13,7.13,0,0,0-.72,1.53,9,9,0,0,0-.39,1.62,14.8,14.8,0,0,0-.09,1.65ZM56.37,97v21H60.3V110.8h5a6.55,6.55,0,0,0,5.1-1.89,7.15,7.15,0,0,0,1.71-5,8.33,8.33,0,0,0-.72-3.57,5.49,5.49,0,0,0-2.25-2.43A7.66,7.66,0,0,0,65.28,97Zm3.93,10.56v-7.26h5a2.61,2.61,0,0,1,2.19,1,4.41,4.41,0,0,1,.72,2.67,4.35,4.35,0,0,1-.72,2.67,2.53,2.53,0,0,1-2.19,1Z"/><rect class="cls-1" width="96" height="89.91" rx="11"/><rect class="cls-2" x="24" y="22.48" width="72" height="67.44" rx="11"/><rect class="cls-3" x="24" y="22.48" width="72" height="67.44" rx="11"/><rect class="cls-2" x="49.67" y="46.69" width="46.33" height="43.23" rx="11"/><rect class="cls-4" x="49.67" y="46.69" width="46.33" height="43.23" rx="11"/></svg>