<svg id="Capa_1" data-name="Capa 1" xmlns="http://www.w3.org/2000/svg" viewBox="0 0 157 84.5"><defs><style>.cls-1{fill:#e9eaee;}.cls-2{fill:#fff;}.cls-3{fill:#c4c4c4;}.cls-4{fill:#958f8f;}</style></defs><path class="cls-1" d="M118.27,50.7V84.5H101.53V0h35.58C144.44,0,157,3.38,157,28.17c0,18-14,22.53-18.84,22.53Z"/><path class="cls-2" d="M119.32,36.05V12.39H135c2.79.38,8.37,3.38,8.37,12.4s-4.88,11.26-7.32,11.26Z"/><path class="cls-3" d="M64.89,0,59.66,19.15,41.87,84.5H58.61L62.8,64.22H90L94.2,84.5h22L85.83,0Z"/><path class="cls-4" d="M0,83.37V0H36C48.64,0,58.16,8,60.27,19.42c0,3,1,14.41,0,35.4C59.22,77.66,42.3,82.61,36,83.37Z"/><path class="cls-2" d="M14.65,69.85V12.39H35.59C44,12.39,46.75,22.16,47.1,27v27c0,9-7.68,14.27-11.51,15.77Z"/><path class="cls-2" d="M85.83,47.32H67l9.42-27Z"/></svg>