<svg id="Capa_1" data-name="Capa 1" xmlns="http://www.w3.org/2000/svg" xmlns:xlink="http://www.w3.org/1999/xlink" viewBox="0 0 104 125.67"><defs><style>.cls-1{fill:url(#Degradado_sin_nombre);}</style><linearGradient id="Degradado_sin_nombre" x1="52" y1="128" x2="52" y2="2.33" gradientTransform="matrix(1, 0, 0, -1, 0, 128)" gradientUnits="userSpaceOnUse"><stop offset="0" stop-color="#006efb"/><stop offset="1" stop-color="#022046"/></linearGradient></defs><path class="cls-1" d="M52,0,0,22.85V57.12c0,31.7,22.19,61.35,52,68.55,29.81-7.2,52-36.85,52-68.55V22.85Zm0,34.27c8.09,0,16.18,6.29,16.18,14.28v8.57c3.46,0,6.93,3.43,6.93,7.43v20c0,3.43-3.47,6.85-7.51,6.85H35.82c-3.46,0-6.93-3.42-6.93-7.42V64a7.42,7.42,0,0,1,6.93-6.86V48.55C35.82,40.56,43.91,34.27,52,34.27Zm0,6.86c-4.62,0-8.67,2.85-8.67,7.42v8.57H60.67V48.55C60.67,44,56.62,41.13,52,41.13Z"/></svg>