<svg id="Capa_1" data-name="Capa 1" xmlns="http://www.w3.org/2000/svg" viewBox="0 0 114.09 125.52"><defs><style>.cls-1{fill:#303030;}.cls-1,.cls-2{stroke:#303030;}.cls-2{fill:none;stroke-width:4px;}</style></defs><path class="cls-1" d="M51.45,43.5l-11-28.59A288.41,288.41,0,0,0,69,3.47C83.1-2.93,88.81,4.61,89.91,9.19l14.28,38.88L81.12,57.22c-2.2-2.29-5.72-5.26-11-3.43S63.9,61,64.64,64.08l-4.4,1.15a51.4,51.4,0,0,0-3.3-9.15h0c-3.51,0-8.79,0-9.89-3.43C45.19,46.82,49.25,44.64,51.45,43.5Z" transform="translate(-0.06 -0.5)"/><path class="cls-2" d="M34.69,72.15,13.55,80.93A267.7,267.7,0,0,0,4.11,55.59C-1.18,43.11,5,38,8.74,37l30.91-11.8,5.67,18.52c-1.24,2-4.29,6.06-2.78,10.74S50.37,60,52.87,59.35l1.88,4.88c-.93.32-6.31,2.5-9.43,4,.89,2.71,1.26,5.41-1.71,7C39.11,77.58,35.64,74.09,34.69,72.15Z" transform="translate(-0.06 -0.5)"/><path class="cls-2" d="M60.7,89.93l8.22,23.14a244.29,244.29,0,0,0-24.62,9.07c-12.14,5.13-16.85-1.45-17.68-5.37L16.21,84.26l17.37-6.7c1.84,1.35,6.24,4.53,10.77,3.09S50.86,73.6,50.3,71l3.8-1.27c.28,1,2.24,5.28,2.89,9.2,3,.09,6.94.26,7.8,3.22C66.25,87.14,62.6,89,60.7,89.93Z" transform="translate(-0.06 -0.5)"/><path class="cls-2" d="M80,60.94l21.3-7.54a265.75,265.75,0,0,0,9,25.53c5,12.59-1.23,17.55-5,18.45L74.14,108.53l-6-17.82c1.28-1.93,5.11-6.79,3.69-11.5s-7.72-5.67-10.23-5.06L59.8,69.24A74.15,74.15,0,0,1,68.13,66c.05-3.12.86-7.19,3.69-8.12C76.62,56.27,79.12,59,80,60.94Z" transform="translate(-0.06 -0.5)"/></svg>