<svg id="Capa_1" data-name="Capa 1" xmlns="http://www.w3.org/2000/svg" xmlns:xlink="http://www.w3.org/1999/xlink" viewBox="0 0 192 129.2"><defs><style>.cls-1{fill:#11121c;}.cls-2{fill:#e8eaed;}.cls-3{fill:url(#Degradado_sin_nombre);}</style><linearGradient id="Degradado_sin_nombre" x1="95" y1="106" x2="95" y2="48" gradientTransform="matrix(1, 0, 0, -1, 0, 132)" gradientUnits="userSpaceOnUse"><stop offset="0" stop-color="#006efb"/><stop offset="1" stop-color="#022046"/></linearGradient></defs><path class="cls-1" d="M34.63.12C19-.6,15.14,13.71,15.14,21V93c0,13.77,10,19.33,15,20.38h-24c-9.06.91-6.79,13.29-.9,15.86h182.2c8.34-6.53,4.08-16.76-2.27-15.86H162.44C173.68,111.53,176.49,99,176.49,93c-.15-13.43-.36-45.83,0-67.93S163.65-.78,157,.12C122.71.42,50.22.85,34.63.12Z" transform="translate(0 0)"/><path class="cls-2" d="M30.32,46s-.91-21.28,0-26.26c.3-2.81,2.72-5.48,9.06-5,27.65,0,102.94-.23,111.55-.23,6.46,0,9.76,0,9.66,16.76.65,7.1.31,48.46.31,52.08,0,7.25.45,12-10,12H52c-16.23.46-18.5,1.81-21.67-4.53Z" transform="translate(0 0)"/><path class="cls-3" d="M95,26,71,36.55V52.36C71,67,81.24,80.68,95,84c13.76-3.32,24-17,24-31.64V36.55Zm0,15.82c3.73,0,7.47,2.9,7.47,6.59v4a3.48,3.48,0,0,1,3.2,3.43V65a3.47,3.47,0,0,1-3.47,3.16H87.53a3.47,3.47,0,0,1-3.2-3.43V55.53a3.43,3.43,0,0,1,3.2-3.17v-4C87.53,44.72,91.27,41.82,95,41.82ZM95,45c-2.13,0-4,1.32-4,3.43v4h8v-4C99,46.3,97.13,45,95,45Z" transform="translate(0 0)"/></svg>