<svg id="Capa_1" data-name="Capa 1" xmlns="http://www.w3.org/2000/svg" viewBox="0 0 99 103.25"><defs><style>.cls-1{fill:#303030;}</style></defs><path class="cls-1" d="M15.63,72.55a2,2,0,0,1-.57,1.4L3.43,85.84A2,2,0,0,1,0,84.44v-39a2,2,0,0,1,2-2H13.63a2,2,0,0,1,2,2ZM41.68,58.91a2,2,0,0,1-3.33,1.49l-3.46-3.09a2,2,0,0,0-2.72.06L29.44,60a2,2,0,0,1-3.39-1.45V23.74a2,2,0,0,1,2-2H39.68a2,2,0,0,1,2,2Zm26.06-5.37a2,2,0,0,1-.56,1.38L55.55,67.06a2,2,0,0,1-3.44-1.39V2a2,2,0,0,1,2-2H65.74a2,2,0,0,1,2,2Zm14.64-.23-6.19-6.45a2,2,0,0,1,1.45-3.39H97a2,2,0,0,1,2,2v20.2a2,2,0,0,1-3.44,1.39l-4.45-4.64a2,2,0,0,0-2.88,0l-34.78,36a2,2,0,0,1-2.78.09L35.44,84.65a2,2,0,0,0-2.76.07L14.92,102.66a2,2,0,0,1-1.43.59H4.76a2,2,0,0,1-1.43-3.4L32.39,70.16a2,2,0,0,1,2.75-.11L52.11,85"/></svg>