<svg id="Capa_1" data-name="Capa 1" xmlns="http://www.w3.org/2000/svg" viewBox="0 0 117 110.48"><defs><style>.cls-1{fill:#303030;}</style></defs><path class="cls-1" d="M99.36,77.33a7,7,0,0,0,7-7V18.05a7,7,0,0,0-7-7H17.64a7,7,0,0,0-7,7V70.33a7,7,0,0,0,7,7Zm7-77.33a10.44,10.44,0,0,1,7.53,3.24A11.28,11.28,0,0,1,117,11.05V77.33a11.32,11.32,0,0,1-3.11,7.82,10.47,10.47,0,0,1-7.53,3.23H74.66a5.53,5.53,0,0,0,0,11.05h26.18a5.53,5.53,0,0,1,0,11H16.16a5.53,5.53,0,0,1,0-11H42.34a5.53,5.53,0,0,0,0-11.05H10.64a10.43,10.43,0,0,1-7.52-3.23A11.28,11.28,0,0,1,0,77.33V11.05A10.81,10.81,0,0,1,10.64,0Z"/><path class="cls-1" d="M65.1,22.62c-2.14,0-3.85,2.13-3.85,4.79V60.94c0,2.66,1.71,4.79,3.85,4.79h27c2.14,0,3.85-2.13,3.85-4.79V27.41c0-2.66-1.71-4.79-3.85-4.79Zm0,5.29a.5.5,0,0,1,.5-.5h26a.5.5,0,0,1,.5.5V60.44a.5.5,0,0,1-.5.5h-26a.5.5,0,0,1-.5-.5Zm4.36,4.29a.5.5,0,0,0-.5.5v3.79a.5.5,0,0,0,.5.5H87.74a.5.5,0,0,0,.5-.5V32.7a.5.5,0,0,0-.5-.5Zm0,9.58a.5.5,0,0,0-.5.5v3.79a.5.5,0,0,0,.5.5H87.74a.5.5,0,0,0,.5-.5V42.28a.5.5,0,0,0-.5-.5Zm0,9.58a.5.5,0,0,0-.5.5v3.79a.5.5,0,0,0,.5.5H82a.5.5,0,0,0,.5-.5V51.86a.51.51,0,0,0-.5-.5Z"/><path class="cls-1" d="M25.63,22.62c-2.14,0-3.85,2.13-3.85,4.79V60.94c0,2.66,1.71,4.79,3.85,4.79h27c2.14,0,3.85-2.13,3.85-4.79V27.41c0-2.66-1.71-4.79-3.85-4.79Zm0,5.29a.5.5,0,0,1,.5-.5h26a.5.5,0,0,1,.5.5V60.44a.5.5,0,0,1-.5.5h-26a.5.5,0,0,1-.5-.5ZM30,32.2a.5.5,0,0,0-.5.5v3.79a.5.5,0,0,0,.5.5H48.27a.5.5,0,0,0,.5-.5V32.7a.5.5,0,0,0-.5-.5Zm0,9.58a.5.5,0,0,0-.5.5v3.79a.5.5,0,0,0,.5.5H48.27a.5.5,0,0,0,.5-.5V42.28a.5.5,0,0,0-.5-.5Zm0,9.58a.5.5,0,0,0-.5.5v3.79a.5.5,0,0,0,.5.5h12.5a.5.5,0,0,0,.5-.5V51.86a.51.51,0,0,0-.5-.5Z"/></svg>