<svg id="Capa_1" data-name="Capa 1" xmlns="http://www.w3.org/2000/svg" xmlns:xlink="http://www.w3.org/1999/xlink" viewBox="0 0 113 124.77"><defs><style>.cls-1{fill:url(#Degradado_sin_nombre);}</style><linearGradient id="Degradado_sin_nombre" x1="60.5" y1="134" x2="60.5" y2="9.23" gradientTransform="matrix(1, 0, 0, -1, 0, 134)" gradientUnits="userSpaceOnUse"><stop offset="0" stop-color="#0e75f9"/><stop offset="1" stop-color="#012d65"/></linearGradient></defs><path class="cls-1" d="M9.65,0h90.4a5.67,5.67,0,0,1,5.65,5.67V28.36A5.67,5.67,0,0,1,100.05,34H9.65a5.66,5.66,0,0,1-4-1.66,5.74,5.74,0,0,1-1.65-4V5.67A5.65,5.65,0,0,1,9.65,0Zm0,45.37h90.4A5.67,5.67,0,0,1,105.7,51v3.8L91.57,48.55,54.85,64.88V79.4H9.65a5.66,5.66,0,0,1-4-1.66,5.74,5.74,0,0,1-1.65-4V51a5.74,5.74,0,0,1,1.65-4A5.66,5.66,0,0,1,9.65,45.37Zm0,45.37h45.2a53.3,53.3,0,0,0,13.9,34H9.65A5.65,5.65,0,0,1,4,119.1V96.41a5.74,5.74,0,0,1,1.65-4A5.66,5.66,0,0,1,9.65,90.74Zm28.25-68h5.65V11.34H37.9Zm0,45.37h5.65V56.71H37.9Zm0,45.37h5.65V102.08H37.9ZM15.3,11.34V22.69H26.6V11.34Zm0,45.37V68.06H26.6V56.71Zm0,45.37v11.35H26.6V102.08ZM91.57,62.39,117,73.73v17c0,15.77-10.85,30.46-25.43,34-14.57-3.57-25.42-18.26-25.42-34v-17Zm0,11L77.45,79.74V94.83c0,8.73,6,16.9,14.12,18.94Z" transform="translate(-4)"/></svg>