<svg id="Capa_1" data-name="Capa 1" xmlns="http://www.w3.org/2000/svg" xmlns:xlink="http://www.w3.org/1999/xlink" viewBox="0 0 192 129.2"><defs><style>.cls-1{fill:#11121c;}.cls-2{fill:#e8eaed;}.cls-3{fill:url(#Degradado_sin_nombre);}</style><linearGradient id="Degradado_sin_nombre" x1="96" y1="102" x2="96" y2="49" gradientTransform="matrix(1, 0, 0, -1, 0, 132)" gradientUnits="userSpaceOnUse"><stop offset="0" stop-color="#0e75f9"/><stop offset="1" stop-color="#012d65"/></linearGradient></defs><path class="cls-1" d="M34.63.12C19-.6,15.14,13.71,15.14,21V93c0,13.77,10,19.33,15,20.38h-24c-9.06.91-6.79,13.29-.9,15.86h182.2c8.34-6.53,4.08-16.76-2.27-15.86H162.44C173.68,111.53,176.49,99,176.49,93c-.15-13.43-.36-45.83,0-67.93S163.65-.78,157,.12C122.71.42,50.22.85,34.63.12Z" transform="translate(0 0)"/><path class="cls-2" d="M30.4,46.46s-.9-21.27,0-26.25c.31-2.82,2.72-5.48,9.07-5C67.11,15.23,142.4,15,151,15c6.47,0,9.77,0,9.66,16.76.66,7.1.32,48.46.32,52.08,0,7.25.45,12-10,12H52.07c-16.23.45-18.49,1.81-21.67-4.53Z" transform="translate(0 0)"/><path class="cls-3" d="M74.4,30h38.4a2.37,2.37,0,0,1,1.7.71,2.4,2.4,0,0,1,.7,1.7v9.64a2.39,2.39,0,0,1-2.4,2.4H74.4a2.39,2.39,0,0,1-2.4-2.4V32.41a2.4,2.4,0,0,1,.7-1.7A2.37,2.37,0,0,1,74.4,30Zm0,19.27h38.4a2.41,2.41,0,0,1,2.4,2.41V53.3l-6-2.68L93.6,57.56v6.17H74.4A2.41,2.41,0,0,1,72,61.32V51.68a2.41,2.41,0,0,1,2.4-2.41Zm0,19.28H93.6A22.62,22.62,0,0,0,99.5,83H74.4a2.37,2.37,0,0,1-1.7-.71,2.4,2.4,0,0,1-.7-1.7V71a2.39,2.39,0,0,1,2.4-2.4Zm12-28.91h2.4V34.82H86.4Zm0,19.27h2.4V54.09H86.4Zm0,19.27h2.4V73.36H86.4ZM76.8,34.82v4.82h4.8V34.82Zm0,19.27v4.82h4.8V54.09Zm0,19.27v4.82h4.8V73.36ZM109.2,56.5,120,61.32v7.23c0,6.69-4.61,12.93-10.8,14.45C103,81.48,98.4,75.24,98.4,68.55V61.32Zm0,4.67-6,2.7v6.41a8.39,8.39,0,0,0,6,8Z" transform="translate(0 0)"/></svg>