<svg id="Capa_1" data-name="Capa 1" xmlns="http://www.w3.org/2000/svg" viewBox="0 0 126.48 80.58"><defs><style>.cls-1{fill:none;stroke:#9e1724;stroke-linecap:round;stroke-linejoin:round;stroke-width:4px;}</style></defs><path class="cls-1" d="M14.91,41.68,31.27,9a.49.49,0,0,0-.2-.65L20.47,2.26a.5.5,0,0,0-.69.21L2.21,37.6a.5.5,0,0,0,.2.66L13,44.31a.49.49,0,0,0,.69-.21Zm0,0,11.66,7.81m0,0c1.08-3.27,4.23-8.81,8.15-5l.07.06a5.77,5.77,0,0,1,2.42,6.53M26.57,49.49c-1.64,2.18-4.92,6.88-4.92,8.19A5.48,5.48,0,0,0,23.29,61c3.93,3.93,7.1,1.64,8.19,0m0,0,4.91-8.19a6.92,6.92,0,0,0,.82-1.63M31.48,61c-2.13,3.55.09,5.79,1.55,6.51a.91.91,0,0,1,.16.11c3.35,3.56,5.71,1.44,6.48-.07M37.21,51.13c1.37-2.73,5.08-7.21,9-3.28,1.09,1.09,2.62,4.26,0,8.19m0,0L39.67,67.5M46.22,56a5.69,5.69,0,0,1,8.14-1.67.27.27,0,0,1,.08.07c1.1,1.11,2.9,3.92,1.6,6.51l-1.87,3.28M39.67,67.5a5.92,5.92,0,0,0,3.27,4.91c3.72,2.48,5.78,1.25,6.45.19m4.78-8.37-4.68,8.18-.1.19m4.78-8.37C55.34,62.59,58.34,60,61,62.59c1.09,1.09,2.95,3.93,1.64,6.55s-3.72,6.38-4.85,8.08a.38.38,0,0,1-.19.16c-1.14.54-3.53,1.21-4.79,0a26,26,0,0,1-3.38-4.73m14.84,4.73c1.64,1.09,5.57,2.62,8.19,0s-1.09-7.65-3.27-9.83l3.27,3.28c2.7,2.15,8.71,4.53,11.37-3a.49.49,0,0,0-.07-.47L78.64,61m-1.31-1.64L78.64,61m0,0c2.84,3.28,9.5,8.84,13.43,4.91s.55-8.18-1.63-9.82l-6.55-4.91,11.38,8.13.17.08c2.22.53,6.81.92,8.1-1.66,1.64-3.28,0-6.55-3.28-8.19-2.59-1.3-26.81-16.62-38.94-24.34a.52.52,0,0,0-.65.1C57.25,29,48.86,34,40.11,26.93a.49.49,0,0,1,0-.75l19.1-17.5a.51.51,0,0,1,.33-.13H75.56a.48.48,0,0,1,.26.07l8,4.81.1.05c3.29,1.09,10.44,2.59,13,0m0,0L111.73,41.3M97,13.46a3.52,3.52,0,0,1,1.63-4.91l6.56-3.27a3.52,3.52,0,0,1,4.91,1.63L123.15,33a.64.64,0,0,0,.1.13c1.08,1.12,2.52,3.57-.06,4.86a91.2,91.2,0,0,0-8.06,4.82.42.42,0,0,1-.28.08,3.76,3.76,0,0,1-3.12-1.63m0,0-8.19,6.55M33.12,15.1c4.83.54,13.47,0,16.24-6.24a.53.53,0,0,1,.47-.31h2.94" transform="translate(-0.16 -0.2)"/></svg>